<?xml version="1.0" encoding="UTF-8" standalone="no" ?>
<!DOCTYPE svg PUBLIC "-//W3C//DTD SVG 1.1//EN" "http://www.w3.org/Graphics/SVG/1.1/DTD/svg11.dtd">
<svg xmlns="http://www.w3.org/2000/svg" xmlns:xlink="http://www.w3.org/1999/xlink" version="1.1" width="1080" height="1080" viewBox="15.45 45.45 1080 1080" xml:space="preserve">
<desc>Created with Fabric.js 5.2.4</desc>
<defs>
</defs>
<rect x="0" y="0" width="100%" height="100%" fill="transparent"></rect>
<g transform="matrix(1 0 0 1 540 540)" id="f55b10f7-102c-4157-962c-ac944090b8bc"  >
</g>
<g transform="matrix(1 0 0 1 540 540)" id="2217a71f-edab-474d-8dd4-a52376f38070"  >
<rect style="stroke: none; stroke-width: 1; stroke-dasharray: none; stroke-linecap: butt; stroke-dashoffset: 0; stroke-linejoin: miter; stroke-miterlimit: 4; fill: rgb(255,255,255); fill-rule: nonzero; opacity: 1; visibility: hidden;" vector-effect="non-scaling-stroke"  x="-540" y="-540" rx="0" ry="0" width="1080" height="1080" />
</g>
<g transform="matrix(1 0 0 1 688.24 337.8)"  >
<path style="stroke: none; stroke-width: 1; stroke-dasharray: none; stroke-linecap: butt; stroke-dashoffset: 0; stroke-linejoin: miter; stroke-miterlimit: 4; fill: rgb(242,242,242); fill-rule: nonzero; opacity: 1;" vector-effect="non-scaling-stroke"  transform=" translate(-748.23, -247.74)" d="M 689.13548 323.255 C 691.2712114999415 323.3531636525145 693.2406749248313 322.1062770773304 694.0654540964423 320.133785135498 C 694.8902332680533 318.16129319366553 694.3945314618923 315.8836206902705 692.82461 314.4323 C 692.69625 313.92216 692.60417 313.5558 692.47582 313.04566 Q 692.5447 312.87907 692.61441 312.7128 C 697.30071 301.53831 713.18311 301.61541 717.8295400000001 312.80649 C 721.9536 322.73915999999997 727.2042500000001 332.68874999999997 728.4970900000001 343.1909 C 729.0664817315246 347.8330705309938 728.8262911098848 352.53882940316555 727.7872000000001 357.0989 C 737.4734760522131 335.9694471232568 742.5033092589897 313.00428240800926 742.5356800000001 289.7604300000001 C 742.5377189998883 283.92767392704445 742.2136499572116 278.099365525604 741.5649900000001 272.30279 Q 740.7608700000001 265.17479000000003 739.3338100000001 258.1483 C 734.1421464045982 232.7315998832465 722.9954511456378 208.90891228218584 706.8091300000001 188.63664 C 698.9749882789924 184.36212155923926 692.6394005175658 177.78888556234136 688.6561300000001 169.80272 C 687.2130905170246 166.93195639027866 686.1932022696884 163.8674245157728 685.6281900000001 160.70445 C 686.5119000000001 160.82037 688.9603900000001 147.36123 688.2938600000001 146.53545 C 689.5254300000001 144.6666 691.7297300000001 143.73761 693.0748000000001 141.91397 C 699.7643400000001 132.84436 708.9808 134.42797000000002 713.7921900000001 146.75285 C 724.0704400000001 151.9403 724.1699300000001 160.54334 717.8632400000001 168.81748 C 713.8509000000001 174.08154 713.2996000000002 181.20441 709.7790600000002 186.84000999999998 C 710.1413300000002 187.30365999999998 710.5180600000002 187.75283 710.8801800000002 188.21648999999996 C 717.5010901207294 196.73010048982547 723.2716909999502 205.8720984655859 728.1092400000002 215.5113999999999 C 726.7405900000002 204.82050999999998 728.7612400000003 191.94080999999997 732.2059800000002 183.6384 C 736.1272800000002 174.17869 743.4771700000002 166.21169999999998 749.9496200000002 158.03379999999999 C 757.7240900000002 148.21087999999997 773.6663600000002 152.49779999999998 775.0360500000002 164.94988999999998 Q 775.0559400000002 165.13074999999998 775.0748800000001 165.31146999999999 Q 773.6328300000001 166.12497 772.2516800000001 167.03847 C 769.8841796126674 168.62026969053161 768.7304582817272 171.493153812785 769.34634486245 174.27305166426663 C 769.9622314431728 177.05294951574825 772.2214079976249 179.1697058515545 775.03547 179.60352999999998 L 775.17627 179.62523 C 774.8337895809559 183.0901151724063 774.2284053603844 186.52395200583473 773.36535 189.89705999999998 C 781.6687000000001 222.00827999999998 763.74235 233.70385 738.1459600000001 234.22923999999998 C 737.58096 234.51895999999996 737.0303 234.80866999999998 736.4652600000001 235.08404 C 741.3255481017335 248.85763936790661 744.3742064934578 263.2047616317795 745.53456 277.76457000000005 C 746.191481542973 286.3544543635694 746.152715209148 294.9833948213342 745.4186400000001 303.56703000000005 L 745.4621300000001 303.26282 C 747.3166904527557 293.71799664084415 752.4083982733436 285.1056268972234 759.8774000000001 278.88011 C 770.97071 269.76736 786.6434700000001 266.41162 798.6111900000001 259.08675 C 804.3721100000001 255.56074999999998 811.75431 260.11732 810.7488800000001 266.79634 Q 810.72481 266.95624 810.6999400000001 267.11622 C 808.9159062897609 267.8428085042528 807.1788747756685 268.67984327869596 805.4989400000001 269.62246 Q 804.0568900000001 270.43616 802.67574 271.34945999999997 C 800.3082349096752 272.93128439801114 799.1545145865274 275.8041862449239 799.7704010171193 278.5841021939177 C 800.3862874477112 281.36401814291156 802.6454645366628 283.48079741501226 805.4595400000001 283.91464999999994 L 805.60045 283.93628999999993 C 805.70182 283.9507699999999 805.7887900000001 283.9652899999999 805.89005 283.9798799999999 C 802.8417943041798 291.25819674230036 798.5634653058592 297.9575080290687 793.24245 303.7843899999999 C 788.05058 331.8162299999999 765.75145 334.47581999999994 741.89823 326.3126699999999 L 741.8837 326.3126699999999 C 739.2665474524912 337.6855175994673 735.4745423656105 348.7555828097847 730.5687899999999 359.3444799999999 L 690.14836 359.3444799999999 C 690.00336 358.89537999999993 689.87305 358.4317299999999 689.74261 357.9825599999999 C 693.4840186348011 358.2177921241351 697.2401543404646 357.99404746050106 700.92718 357.3163199999999 C 697.92818 353.6363799999999 694.92931 349.9274599999999 691.93032 346.2476499999999 C 691.8634362673367 346.1788609629139 691.8005498284084 346.1062953210945 691.74197 346.03030999999993 C 690.2207900000001 344.1470299999999 688.6850800000001 342.27804999999995 687.1639 340.3947099999999 L 687.16309 340.3924199999999 C 687.0820004401982 334.6192843300971 687.7444821570837 328.8597288950038 689.1342 323.25577 Z" stroke-linecap="round" />
</g>
<g transform="matrix(1 0 0 1 800.2 343)"  >
<path style="stroke: none; stroke-width: 1; stroke-dasharray: none; stroke-linecap: butt; stroke-dashoffset: 0; stroke-linejoin: miter; stroke-miterlimit: 4; fill: rgb(47,46,65); fill-rule: nonzero; opacity: 1;" vector-effect="non-scaling-stroke"  transform=" translate(-860.2, -252.95)" d="M 818.913 219.8102 C 811.39724 192.40857 872.01545 168.91113 887.9336900000001 190.97771 C 890.1471700000001 187.84051 898.32726 185.93493 902.0805 186.8973 C 905.83374 187.85967 908.99021 190.26557 912.06984 192.59453 C 916.30427 195.84732 920.69258 199.2156 923.29092 203.89266999999998 C 925.90864 208.55048 926.31275 214.90216999999998 922.7905900000001 218.94404999999998 C 919.99971 222.15830999999997 911.7618200000001 224.23704999999998 907.5659300000001 225.08392999999998 C 904.6404200000001 225.68059999999997 902.17672 226.16178 900.0595600000001 226.50821 C 898.1364227216299 223.73752479262092 897.250520690304 220.3780441168957 897.5573200000001 217.01932 C 894.671903289383 218.96572679122062 892.8080508644587 222.10044721161788 892.4761300000001 225.56511999999998 C 892.4183400000002 226.27725999999998 916.1309900000001 313.52517 916.1309900000001 313.52517 C 913.2818816049519 315.14665289321516 910.2850647864817 316.4935864429709 907.1809900000001 317.54779 C 901.0402903863566 308.16281852589293 896.3369009266381 297.9126782648132 893.2267200000001 287.13712000000004 C 892.5118633430388 294.34244553231326 892.6022512258701 301.60499737751 893.4962100000001 308.79030000000006 C 893.9716754507422 312.8194292789961 894.6526292418164 316.8216432329081 895.5364100000002 320.7813 C 867.3584100000002 326.86351 824.9759700000002 324.86183000000005 806.5370500000001 298.99350000000004 Q 806.5321400000001 298.83297000000005 806.5277600000002 298.67220000000003 C 806.498121051646 296.56631717808693 804.9809416855511 294.77647636322985 802.9083510639541 294.4023252678728 C 800.8357604423572 294.0281741725158 798.7885244447687 295.17455462490045 798.0244300000002 297.13715 C 797.5770700000002 298.27845 797.1653500000002 299.26631000000003 796.7979300000002 300.05207 C 791.42794 280.84323 798.37617 258.61265 818.913 219.8102 Z" stroke-linecap="round" />
</g>
<g transform="matrix(1 0 0 1 710.95 769.72)"  >
<path style="stroke: none; stroke-width: 1; stroke-dasharray: none; stroke-linecap: butt; stroke-dashoffset: 0; stroke-linejoin: miter; stroke-miterlimit: 4; fill: rgb(47,46,65); fill-rule: nonzero; opacity: 1;" vector-effect="non-scaling-stroke"  transform=" translate(-770.95, -679.66)" d="M 770.96283 679.20736 L 770.96283 680.10473 C 770.9274713783504 679.8066515802404 770.9274713783504 679.5054384197596 770.96283 679.20736 Z" stroke-linecap="round" />
</g>
<g transform="matrix(1 0 0 1 739.65 613.98)"  >
<path style="stroke: none; stroke-width: 1; stroke-dasharray: none; stroke-linecap: butt; stroke-dashoffset: 0; stroke-linejoin: miter; stroke-miterlimit: 4; fill: rgb(47,46,65); fill-rule: nonzero; opacity: 1;" vector-effect="non-scaling-stroke"  transform=" translate(-799.65, -523.92)" d="M 798.5576 524.13266 C 799.2740375327384 523.9386434058695 800.0036248687672 523.7969370245244 800.7406 523.70866 Q 799.47155 523.91547 798.5576 524.13266 Z" stroke-linecap="round" />
</g>
<g transform="matrix(1 0 0 1 738.24 614.27)"  >
<path style="stroke: none; stroke-width: 1; stroke-dasharray: none; stroke-linecap: butt; stroke-dashoffset: 0; stroke-linejoin: miter; stroke-miterlimit: 4; fill: rgb(47,46,65); fill-rule: nonzero; opacity: 1;" vector-effect="non-scaling-stroke"  transform=" translate(-798.24, -524.21)" d="M 797.919 524.2954 C 798.11265 524.2411 798.32821 524.1868 798.5575699999999 524.13266 C 798.34394 524.18828 798.13849 524.2292 797.919 524.2954 Z" stroke-linecap="round" />
</g>
<g transform="matrix(1 0 0 1 825.11 733.22)"  >
<path style="stroke: none; stroke-width: 1; stroke-dasharray: none; stroke-linecap: butt; stroke-dashoffset: 0; stroke-linejoin: miter; stroke-miterlimit: 4; fill: rgb(47,46,65); fill-rule: nonzero; opacity: 1;" vector-effect="non-scaling-stroke"  transform=" translate(-885.1, -643.16)" d="M 1001.7905 768.99812 L 898.50437 768.99812 C 895.46730267462 766.5741219432094 894.5445479151775 762.3534598665683 896.29297 758.8832199999999 C 899.11459 752.41211 893.58542 746.49897 893.58542 746.49897 C 889.7736305803198 742.0326705696567 888.4453678466732 735.9572192046923 890.04556 730.30771 C 892.78214 720.7498800000001 882.0579700000001 693.7727100000001 882.0579700000001 693.7727100000001 C 882.0579700000001 693.7727100000001 876.2767000000001 728.60697 869.19248 768.99814 L 770.96283 768.99814 C 767.6119557830967 763.2905894683345 767.6119557830967 756.2166205316656 770.96283 750.5090700000001 C 776.68731 740.8026400000001 770.96283 738.94113 770.96283 738.94113 C 770.96283 738.94113 765.2383500000001 728.0795800000001 770.96283 720.19313 C 776.68731 712.3066799999999 770.96283 680.10477 770.96283 680.10477 C 771.1785500000001 681.52853 772.80939 678.93991 775.3203400000001 673.51239 C 779.1428700000001 665.25467 784.9845500000001 650.40463 790.8865800000001 633.16439 C 795.1060500000001 620.8598400000001 799.3600200000001 607.32133 802.91506 594.0848100000001 L 802.9237 594.0848100000001 Q 804.32158 588.86881 805.5727 583.7475800000001 C 807.2035400000001 577.0516700000001 808.6014 570.5455800000001 809.6627000000001 564.4364400000001 C 811.9665600000001 551.2776 812.72589 539.9739000000001 810.9570100000001 532.62224 C 809.4901100000001 526.50444 806.28024 523.13062 800.7406000000001 523.7087300000001 C 803.7088900000001 523.21689 808.05776 522.7509500000001 813.41623 522.3108800000001 C 814.38265 522.2332000000001 815.38356 522.1555700000001 816.41902 522.0692500000001 C 856.3873900000001 519.0491900000002 942.1399100000001 517.3148500000001 942.1399100000001 517.3148500000001 L 968.40587 564.35 L 1001.6696900000001 623.93155 C 1001.6696900000001 623.93155 1000.76368 703.8597 1001.7905 768.99812 Z" stroke-linecap="round" />
</g>
<g transform="matrix(1 0 0 1 811.57 534.48)"  >
<path style="stroke: none; stroke-width: 1; stroke-dasharray: none; stroke-linecap: butt; stroke-dashoffset: 0; stroke-linejoin: miter; stroke-miterlimit: 4; fill: rgb(230,230,230); fill-rule: nonzero; opacity: 1;" vector-effect="non-scaling-stroke"  transform=" translate(-871.57, -444.42)" d="M 891.54674 314.01971 L 831.0329 301.18327 L 819.0176200000001 325.36847 L 778.55553 348.7939 C 778.55553 348.7939 804.63709 455.43525 804.4883 470.43374 C 804.1105299999999 508.51274 743.18242 593.87416 789.20345 587.30729 C 835.22448 580.74042 844.57263 553.2339499999999 859.34662 557.5832899999999 C 872.67092 561.50582 888.94021 578.9553999999999 899.83214 566.4754499999999 C 910.72407 553.9954999999999 914.56046 568.4067399999999 921.4477899999999 568.9047899999999 C 924.7208599999999 569.1414799999999 922.7496399999999 553.1459799999999 930.9848599999999 569.4018599999999 C 939.2200799999999 585.65774 982.8893099999999 563.77563 968.0884899999999 548.9748099999999 C 943.4384899999999 524.32481 938.4287699999999 342.61348999999996 938.4287699999999 342.61348999999996 L 910.9881699999999 334.17022999999995 Z" stroke-linecap="round" />
</g>
<g transform="matrix(1 0 0 1 708.45 751.29)"  >
<path style="stroke: none; stroke-width: 1; stroke-dasharray: none; stroke-linecap: butt; stroke-dashoffset: 0; stroke-linejoin: miter; stroke-miterlimit: 4; fill: rgb(160,97,106); fill-rule: nonzero; opacity: 1;" vector-effect="non-scaling-stroke"  transform=" translate(-768.44, -661.22)" d="M 777.41122 701.29557 C 782.4670586215076 695.2668265484473 781.8038251978604 686.3086664024357 775.9152799999999 681.09021 C 775.3316323691404 680.589148585236 774.7075003450412 680.1372716481739 774.04928 679.73921 L 784.16721 630.08281 L 760.77689 616.0836 L 754.27096 685.6052400000001 C 751.3110263546965 691.480710271314 752.6821908062815 698.61300035757 757.6097 702.9721300000001 C 760.386719499269 705.3816875579603 764.0071941424103 706.5893862755916 767.674657501803 706.3295451088086 C 771.3421208611957 706.0697039420257 774.756152037735 704.3636078252097 777.1657 701.5865800000001 Q 777.29042 701.44274 777.41122 701.29557 Z" stroke-linecap="round" />
</g>
<g transform="matrix(1 0 0 1 740.9 586.1)"  >
<path style="stroke: none; stroke-width: 1; stroke-dasharray: none; stroke-linecap: butt; stroke-dashoffset: 0; stroke-linejoin: miter; stroke-miterlimit: 4; fill: rgb(230,230,230); fill-rule: nonzero; opacity: 1;" vector-effect="non-scaling-stroke"  transform=" translate(-800.9, -496.04)" d="M 850.0367 439.55249 C 849.88997 437.95614 847.8536 437.23134999999996 845.03198 436.23039 C 842.1980125267546 435.35742769997404 839.5042077333064 434.08172136895956 837.0331699999999 432.44239 C 830.78591 427.92957 833.2451699999999 423.20966999999996 836.6448599999999 416.68633 C 837.3092899999999 415.41788 837.9995799999999 414.09771 838.6467399999999 412.72572 C 840.5709299999999 408.66156 837.5077399999999 391.89590000000004 829.5261399999999 362.88605 C 827.06692 353.95532000000003 827.07556 347.6477 825.3757199999999 343.46273 C 823.6844599999998 339.27781000000004 820.2933699999999 337.21552 811.0519599999999 336.78409000000005 C 799.881793168903 336.220181947679 788.9437515101785 340.1082354191836 780.6356199999999 347.59593000000007 C 780.4113199999999 347.79438000000005 780.17833 348.0101000000001 779.9539699999999 348.21718000000004 Q 779.31977 348.81259000000006 778.71143 349.43386000000004 C 771.028278990456 357.1632389532346 766.631662932241 367.5642379772758 766.44137 378.46093 L 766.39819 380.31614 L 764.49127 468.95062 L 759.13279 546.73018 L 751.74659 653.87334 L 757.21724 654.14088 L 779.048 655.228 L 781.697 655.35745 L 787.97871 629.00527 L 795.5375 597.29462 L 798.31598 585.64581 L 806.9361 549.5086 L 810.9571 532.62213 L 813.4163199999999 522.3107699999999 L 814.4172 518.1 L 819.30105 497.63263 C 819.41322 497.20119 830.64787 452.87531 843.59963 445.46319 C 848.43171 442.702 850.17474 441.097 850.0367 439.55249 Z" stroke-linecap="round" />
</g>
<g transform="matrix(1 0 0 1 940 749.56)"  >
<path style="stroke: none; stroke-width: 1; stroke-dasharray: none; stroke-linecap: butt; stroke-dashoffset: 0; stroke-linejoin: miter; stroke-miterlimit: 4; fill: rgb(160,97,106); fill-rule: nonzero; opacity: 1;" vector-effect="non-scaling-stroke"  transform=" translate(-999.99, -659.5)" d="M 995.35486 700.7676 C 989.6807857383466 695.3167198949059 989.3780847282941 686.3391466137576 994.67211 680.51845 C 995.198568706653 679.9575916033805 995.7705664502038 679.4412908327242 996.38224 678.9748400000001 L 980.98979 630.6923 L 1002.74132 614.26196 L 1016.67617 682.68276 C 1020.2499919208776 688.2063505678962 1019.6527561322744 695.4446388774257 1015.22192 700.30776 C 1012.7197482319698 703.0016204513374 1009.2499262726632 704.5911624798761 1005.5757765657006 704.7267044248009 C 1001.901626858738 704.8622463697258 998.3241171512201 703.5326853209611 995.6302599999999 701.03051 Q 995.49076 700.901 995.35486 700.7676 Z" stroke-linecap="round" />
</g>
<g transform="matrix(1 0 0 1 895.41 588.56)"  >
<path style="stroke: none; stroke-width: 1; stroke-dasharray: none; stroke-linecap: butt; stroke-dashoffset: 0; stroke-linejoin: miter; stroke-miterlimit: 4; fill: rgb(230,230,230); fill-rule: nonzero; opacity: 1;" vector-effect="non-scaling-stroke"  transform=" translate(-955.41, -498.5)" d="M 1005.99554 595.99963 C 1005.99554 595.99963 989.031 536.3119 994.20466 529.85028 C 999.37832 523.38866 984.09845 522.12678 990.68297 510.09283 C 997.26749 498.05887999999993 988.1792099999999 496.04618 988.1792099999999 496.04618 L 983.2473699999999 468.3775 L 974.4305499999999 400.41618 L 974.1632099999999 398.39501 L 971.5987299999999 378.62283 C 970.1514127986305 367.21205937231224 964.1240309206196 356.88116437818564 954.9027299999999 350.00599 C 954.6696599999999 349.82756 954.4315899999999 349.65616 954.1934799999999 349.48474 Q 952.5653499999999 348.31261 950.86633 347.31273999999996 C 942.4030358452903 342.31985445494036 932.4644517469454 340.4320693012833 922.7598899999999 341.97405999999995 C 904.4741799999999 344.82192 910.16532 351.64095999999995 907.1994299999999 369.90905999999995 C 902.3804299999999 399.61235999999997 901.1295299999999 416.60585 903.4794899999999 420.44536999999997 C 904.27112 421.73826999999994 905.1030599999999 422.97517 905.8960999999999 424.16272 C 909.9788799999999 430.29172 912.9305199999999 434.71324 907.20075 439.88081999999997 C 904.917555140715 441.7694309559451 902.3773646275415 443.32372679197846 899.65648 444.49701999999996 C 896.96336 445.80101999999994 895.01389 446.73663999999997 895.04002 448.33964 C 895.07036 449.89252999999997 896.97402 451.29486999999995 902.07142 453.51863999999995 C 908.24833 456.22182999999995 914.88275 466.44187999999997 920.3167 476.88204999999994 C 924.6280206138772 485.2974361847084 928.4732375919344 493.9435734268697 931.83493 502.78128999999984 L 978.53972 634.1368 L 986.15755 655.5588 L 988.78522 655.14328 L 1010.36522 651.72195 L 1015.77695 650.86533 Z" stroke-linecap="round" />
</g>
<g transform="matrix(1 0 0 1 806.02 340.97)"  >
<circle style="stroke: none; stroke-width: 1; stroke-dasharray: none; stroke-linecap: butt; stroke-dashoffset: 0; stroke-linejoin: miter; stroke-miterlimit: 4; fill: rgb(160,97,106); fill-rule: nonzero; opacity: 1;" vector-effect="non-scaling-stroke"  cx="0" cy="0" r="49.37021" />
</g>
<g transform="matrix(1 0 0 1 773.25 346.85)"  >
<path style="stroke: none; stroke-width: 1; stroke-dasharray: none; stroke-linecap: butt; stroke-dashoffset: 0; stroke-linejoin: miter; stroke-miterlimit: 4; fill: rgb(47,46,65); fill-rule: nonzero; opacity: 1;" vector-effect="non-scaling-stroke"  transform=" translate(-833.25, -256.8)" d="M 791.9668 223.65966 C 784.4510300000001 196.25802 845.06925 172.76058 860.98749 194.82716 C 863.20097 191.68995999999999 871.3810599999999 189.78439 875.1342999999999 190.74675 C 878.88754 191.70910999999998 882.04401 194.11502 885.1236399999999 196.44397999999998 C 889.3580699999999 199.69678 893.7463799999999 203.06504999999999 896.3447199999999 207.74211999999997 C 898.9624399999999 212.39992999999998 899.36655 218.75161999999997 895.84439 222.79349999999997 C 893.05351 226.00776999999997 884.81562 228.08649999999997 880.61973 228.93338999999997 C 877.69422 229.53004999999996 875.23052 230.01122999999998 873.1133600000001 230.35766999999998 C 871.1902242981972 227.58698406519127 870.3043224205678 224.22750397230703 870.61112 220.86878 C 867.7257016392741 222.8151806555402 865.8618482476522 225.94989903363438 865.52993 229.41457 C 865.47213 230.12671 889.18479 317.37463 889.18479 317.37463 C 886.3356811741174 318.99610934309567 883.33886437744 320.3430395346579 880.23479 321.39724 C 874.0940904976957 312.0122720544026 869.3907010104953 301.7621351040049 866.28052 290.98658 C 865.5656633430388 298.19190553231317 865.65605122587 305.45445737751 866.55001 312.63976 C 867.02547140109 316.668889862063 867.7064252272063 320.6711040219291 868.5902100000001 324.63075999999995 C 840.4122100000001 330.71296 798.0297700000001 328.71129 779.59085 302.84295000000003 Q 779.5859300000001 302.68244000000004 779.5815600000001 302.52166000000005 C 779.55189808666 300.41578622897947 778.0347112401699 298.6259668125392 775.9621270758919 298.2518290697765 C 773.889542911614 297.87769132701374 771.8423204437516 299.02407243193 771.0782300000001 300.98666000000003 C 770.6308700000001 302.12795000000006 770.2191500000001 303.11582000000004 769.8517300000001 303.90158 C 764.48175 284.69268 771.43 262.4621 791.9668 223.65966 Z" stroke-linecap="round" />
</g>
<g transform="matrix(1 0 0 1 750.44 287.91)"  >
<path style="stroke: none; stroke-width: 1; stroke-dasharray: none; stroke-linecap: butt; stroke-dashoffset: 0; stroke-linejoin: miter; stroke-miterlimit: 4; fill: rgb(47,46,65); fill-rule: nonzero; opacity: 1;" vector-effect="non-scaling-stroke"  transform=" translate(-810.44, -197.85)" d="M 810.43534 197.849" stroke-linecap="round" />
</g>
<g transform="matrix(1 0 0 1 428.03 408.8)"  >
<path style="stroke: none; stroke-width: 1; stroke-dasharray: none; stroke-linecap: butt; stroke-dashoffset: 0; stroke-linejoin: miter; stroke-miterlimit: 4; fill: rgb(242,242,242); fill-rule: nonzero; opacity: 1;" vector-effect="non-scaling-stroke"  transform=" translate(-488.02, -318.74)" d="M 547.1209 394.255 C 544.9851685000585 394.3531636525145 543.0157050751687 393.1062770773304 542.1909259035577 391.133785135498 C 541.3661467319467 389.16129319366553 541.8618485381078 386.8836206902705 543.43177 385.4323 C 543.56012 384.92216 543.6522 384.5558 543.78056 384.04566 Q 543.71167 383.87907 543.64197 383.7128 C 538.95566 372.53831 523.07327 372.61541 518.42683 383.80649 C 514.30277 393.73915999999997 509.05212 403.68874999999997 507.75929 414.1909 C 507.1898931989087 418.83307035082237 507.43008386523974 423.53883009857594 508.46918 428.0989 C 498.7829083950673 406.9694703776005 493.7530751607745 384.00432940957506 493.7207 360.7605 C 493.71866264331965 354.92774425071286 494.0427283320149 349.09943612692916 494.69138000000004 343.30286000000007 Q 495.49551 336.17485999999997 496.92257000000006 329.14836999999994 C 502.11422922876767 303.73166843829404 513.2609249469862 279.908979855708 529.4472499999999 259.63671 C 537.281387386623 255.36218587703564 543.6169736445452 248.78895144003863 547.6002500000001 240.80278999999996 C 549.0432807705797 237.9320227730434 550.0631685878338 234.86749219083583 550.62819 231.70451999999995 C 549.74447 231.82043999999993 547.2959900000001 218.36129999999994 547.96252 217.53551999999993 C 546.73095 215.66666999999993 544.52665 214.73767999999993 543.18158 212.91403999999994 C 536.4920400000001 203.84442999999993 527.2755800000001 205.42803999999995 522.46418 217.75291999999993 C 512.1859300000001 222.94036999999994 512.08644 231.54340999999994 518.39313 239.81754999999993 C 522.40547 245.08160999999993 522.95677 252.20447999999993 526.4773200000001 257.84007999999994 C 526.1150500000001 258.3037299999999 525.73832 258.75289999999995 525.3761900000001 259.21655999999996 C 518.755300429748 267.73017287003535 512.9847196847837 276.8721707852674 508.14719000000014 286.5114699999999 C 509.5158300000001 275.82057999999995 507.4951900000001 262.94088 504.0504400000001 254.63846999999998 C 500.1291400000001 245.17875999999998 492.7792600000001 237.21176999999997 486.30680000000007 229.03386999999998 C 478.53233000000006 219.21094999999997 462.59006000000005 223.49786999999998 461.22037000000006 235.94995999999998 Q 461.20049000000006 236.13081999999997 461.18154000000004 236.31153999999998 Q 462.62359000000004 237.12503999999998 464.00474 238.03853999999998 C 466.37224038733274 239.6203396905316 467.52596171827287 242.493223812785 466.9100751375501 245.27312166426665 C 466.29418855682735 248.05301951574828 464.03501200237525 250.1697758515545 461.22095 250.60359999999997 L 461.08016000000003 250.62529999999998 C 461.4226356375674 254.09018582923238 462.0280199217954 257.5240230237314 462.89108000000004 260.89713000000006 C 454.58772000000005 293.00835 472.51408000000004 304.70392 498.11047 305.22931 C 498.67547 305.51903 499.22613 305.80874 499.79117 306.08411 C 494.9308818982666 319.85770936790664 491.88222350654223 334.20483163177954 490.72186999999997 348.76464000000004 C 490.064945130358 357.35452409406577 490.1037081199508 365.98346455173214 490.83778 374.5670999999999 L 490.7943 374.26288999999997 C 488.9397294662816 364.718066127613 483.8480109061468 356.10569967417814 476.379 349.88018999999997 C 465.2857 340.76744 449.61293 337.41170000000005 437.64522 330.08683 C 431.8843 326.56083 424.5021 331.11740000000003 425.50752 337.79642 Q 425.53159 337.95632 425.55647 338.1163 C 427.34050297399534 338.8428901622394 429.0775343863172 339.6799248876418 430.75747 340.62254 Q 432.19952 341.43624 433.58068000000003 342.34954 C 435.94818509032484 343.93136439801117 437.1019054134727 346.8042662449239 436.4860189828808 349.58418219391774 C 435.8701325522889 352.36409814291153 433.61095546333735 354.4808774150123 430.79688000000004 354.91472999999996 L 430.65597 354.93636999999995 C 430.55459 354.95084999999995 430.46762 354.96536999999995 430.36636000000004 354.97995999999995 C 433.4146303668616 362.2582722689066 437.6929728659593 368.95757674309743 443.014 374.78445 C 448.20587 402.81629 470.505 405.47588 494.35821 397.31273 L 494.37275 397.31273 C 496.9899037116083 408.6855759715952 500.7819052901618 419.7556407236017 505.68765 430.34454 L 546.108 430.34454 C 546.2529999999999 429.89544 546.3833199999999 429.43179 546.5137599999999 428.98262 C 542.7723513651988 429.21785212413516 539.0162156595353 428.99410746050114 535.3291899999999 428.31638 C 538.32819 424.63644 541.32706 420.92751999999996 544.3260499999999 417.24771 C 544.3929309406544 417.17891839971037 544.4558172374337 417.106352921919 544.5143999999999 417.03037 C 546.0355699999999 415.14709 547.5712899999999 413.27811 549.0924699999999 411.39477 L 549.0932799999999 411.39248 C 549.1743695598018 405.6193443300972 548.5118878429163 399.8597888950039 547.12217 394.25583 Z" stroke-linecap="round" />
</g>
<g transform="matrix(1 0 0 1 297.13 329.75)"  >
<path style="stroke: none; stroke-width: 1; stroke-dasharray: none; stroke-linecap: butt; stroke-dashoffset: 0; stroke-linejoin: miter; stroke-miterlimit: 4; fill: rgb(47,46,65); fill-rule: nonzero; opacity: 1;" vector-effect="non-scaling-stroke"  transform=" translate(-357.13, -239.69)" d="M 358.51608 190.97871 C 357.59868 193.11659 329.31187 192.88750000000002 328.01635 194.79118 C 318.0277 209.48828 354.03485 272.02073 344.04621 286.73690999999997 L 342.65468999999996 288.39532999999994 C 345.913381800594 286.8935332383231 349.04368563432115 285.1275341276525 352.01424999999995 283.11501999999996 C 352.28114999999997 277.09137999999996 352.54804999999993 271.04852999999997 352.83390999999995 265.02488999999997 C 355.8257797211682 268.85224778159403 358.2405911217064 273.09741052609763 360.00136999999995 277.6250599999999 C 362.32703 275.98573 364.23477999999994 272.94674 374.20282999999995 266.96927999999997 C 378.23836100652716 262.5362027166069 382.89055221231115 258.7066311128068 388.0165 255.5982 Z" stroke-linecap="round" />
</g>
<g transform="matrix(1 0 0 1 225.35 485.02)"  >
<path style="stroke: none; stroke-width: 1; stroke-dasharray: none; stroke-linecap: butt; stroke-dashoffset: 0; stroke-linejoin: miter; stroke-miterlimit: 4; fill: rgb(255,182,182); fill-rule: nonzero; opacity: 1;" vector-effect="non-scaling-stroke"  transform=" translate(-285.34, -394.96)" d="M 379.05672 311.42954 C 372.7236222002257 307.30396995878095 364.78915395782883 306.4872653922793 357.7484494372516 309.23625352619945 C 350.70774491667447 311.9852416601196 345.4258052577249 317.9621895499514 343.56363 325.28754 L 300.57777 437.29108 L 226.69 395.34309 C 226.0244355270286 385.45149458575276 219.06292640769124 377.11449060723413 209.44869590480528 374.6951502541178 C 199.83446540191935 372.2758099010014 189.75610624720613 376.32487415154884 184.4880082165099 384.72331323543904 C 179.21991018581372 393.12175231932923 179.9613082107826 403.95773743952134 186.324200424972 411.5603842534571 C 192.68709263916142 419.1630310673928 203.22302410397583 421.8016657001501 212.41814 418.09539 C 227.97826999999998 434.70255000000003 295.43706 502.79176 323.36453 476.18766 C 346.83894 453.82565999999997 380.71533 367.15855 388.86999000000003 337.23066 C 391.55017425468037 327.4117336888435 387.5846473507791 316.98554185770223 379.05672 311.42954 Z" stroke-linecap="round" />
</g>
<g transform="matrix(1 0 0 1 299.29 606.08)"  >
<polygon style="stroke: none; stroke-width: 1; stroke-dasharray: none; stroke-linecap: butt; stroke-dashoffset: 0; stroke-linejoin: miter; stroke-miterlimit: 4; fill: rgb(255,182,182); fill-rule: nonzero; opacity: 1;" vector-effect="non-scaling-stroke"  points="-60.94,-35.14 -47.37,26.17 51.82,35.14 60.94,-18.24 -60.94,-35.14 " />
</g>
<g transform="matrix(1 0 0 1 281.22 735.61)"  >
<path style="stroke: none; stroke-width: 1; stroke-dasharray: none; stroke-linecap: butt; stroke-dashoffset: 0; stroke-linejoin: miter; stroke-miterlimit: 4; fill: rgb(47,46,65); fill-rule: nonzero; opacity: 1;" vector-effect="non-scaling-stroke"  transform=" translate(-341.22, -645.55)" d="M 449.85848 638.108 C 449.81318999999996 638.9869199999999 449.75882 639.85682 449.69539 640.73579 C 448.74395999999996 653.43966 447.65659999999997 668.09179 446.47864999999996 684.14833 C 444.62109999999996 709.6286299999999 442.54603 738.64284 440.45287999999994 768.99811 L 232.397 768.99811 L 272.74726 647.71657 C 272.74726 647.71657 289.03978 638.74626 280.74507 623.6774300000001 C 272.45036 608.6086000000001 288.77134 620.6167800000001 288.92317 599.0963300000001 C 289.07500000000005 577.5758800000001 303.70017 554.6808500000001 303.70017 554.6808500000001 L 306.10143 522.0964900000001 L 307.46969 522.1237000000001 L 415.74284 523.9268800000001 L 417.71819 523.9631100000001 L 421.04366 551.9353100000002 C 441.2352077990533 575.9625572437749 451.5360879847883 606.7680439680539 449.85848 638.1079999999998 Z" stroke-linecap="round" />
</g>
<g transform="matrix(1 0 0 1 323.01 482.97)"  >
<path style="stroke: none; stroke-width: 1; stroke-dasharray: none; stroke-linecap: butt; stroke-dashoffset: 0; stroke-linejoin: miter; stroke-miterlimit: 4; fill: rgb(225,5,51); fill-rule: nonzero; opacity: 1;" vector-effect="non-scaling-stroke"  transform=" translate(-383, -394.55)" d="M 360.25006 281.71589 L 409.62263 279.17251 L 432.55489 315.40825 C 432.55489 315.40825 475.70251 322.62198 472.71168 373.4661 C 469.72085 424.31021999999996 420.21391 468.92616999999996 420.21391 468.92616999999996 L 422.33018 461.67074999999994 L 418.65475 472.17274999999995 L 419.12606999999997 478.06963999999994 L 424.14007 484.31463999999994 L 424.65628 490.77313999999996 L 420.21393 500.99164999999994 L 420.21393 500.99164999999994 C 421.3923726220424 502.8807068746245 421.39391959099424 505.27553426103714 420.21791847160796 507.16611201828874 C 419.0419173522216 509.05668977554035 416.89308384551447 510.1139102654466 414.67769 509.89188999999993 L 343.33811 502.7425099999999 C 341.71389999999997 498.2745099999999 340.41069999999996 492.9286399999999 333.90022 501.8280699999999 L 327.17991 501.17700999999994 L 299.24352 498.47040999999996 L 297.59922 492.48046999999997 C 295.7059715469023 485.5836437435957 297.0988222859118 478.1991118906119 301.37433 472.46581999999995 L 301.37433 472.46581999999995 C 298.94774165607527 464.8673795632052 299.5833090184045 456.6218208987387 303.14569 449.48500999999993 L 303.27931 449.21730999999994 L 306.246 446.74451999999997 C 306.246 446.74451999999997 273.78927 397.98285 311.04861 361.25627 L 326.00276 335.83421 L 342.73517000000004 315.41987 Z" stroke-linecap="round" />
</g>
<g transform="matrix(1 0 0 1 312.54 303.57)"  >
<circle style="stroke: none; stroke-width: 1; stroke-dasharray: none; stroke-linecap: butt; stroke-dashoffset: 0; stroke-linejoin: miter; stroke-miterlimit: 4; fill: rgb(255,182,182); fill-rule: nonzero; opacity: 1;" vector-effect="non-scaling-stroke"  cx="0" cy="0" r="46.81885" />
</g>
<g transform="matrix(1 0 0 1 317.92 315.86)"  >
<path style="stroke: none; stroke-width: 1; stroke-dasharray: none; stroke-linecap: butt; stroke-dashoffset: 0; stroke-linejoin: miter; stroke-miterlimit: 4; fill: rgb(47,46,65); fill-rule: nonzero; opacity: 1;" vector-effect="non-scaling-stroke"  transform=" translate(-377.91, -225.79)" d="M 408.09722 280.95294 C 404.284607430626 277.76722710968534 401.6309283914858 273.41146392450196 400.5485 268.56243 C 399.68257263970696 274.4499586336594 399.9087646765134 280.4466425884843 401.21575 286.25221 C 398.68043 288.15844 396.22143 289.96939 393.89575 291.60872 C 392.1349772141864 287.0810696934978 389.7201689605297 282.83590655828544 386.72830000000005 279.00855 C 386.44243000000006 285.03219 386.17553000000004 291.07504 385.9086300000001 297.09868 C 382.9380727602028 299.1111970996291 379.8077717202918 300.87719317647486 376.54908000000006 302.37898 L 377.94059000000004 300.72057 C 387.92923 286.00439 362.08072000000004 258.91689 372.06936 244.21979000000002 C 374.87158 240.10226000000003 362.21417 207.56296000000003 352.56863000000004 206.09513 C 343.99058 204.7989 344.35277 207.27698 336.04163000000005 209.08793 C 335.17846669139067 205.48834975830178 333.8386044506672 202.02011671139752 332.05755000000005 198.77514 C 332.5316828532167 202.39099249789288 332.42229117704187 206.05951326042617 331.73355000000004 209.64069 C 328.77891000000005 209.75506000000001 326.45428000000004 207.8724 323.30803000000003 207.39135000000002 C 303.23534 204.32235000000003 305.27503 182.61044 310.86027 175.72885000000002 C 316.4646 168.86645000000001 335.06945 166.80769000000004 343.64750000000004 164.57731 C 344.42901000000006 163.81489000000002 346.20179 164.29145 346.98341000000005 163.56707 C 363.42276000000004 148.52207 385.40934000000004 146.0305 405.19519 152.69878 C 426.29531000000003 159.81 439.45088000000004 173.57336 446.20283 194.79118 L 448.13935 211.77087 C 449.87669 217.23043 447.69118 242.63308 446.20283 248.16571 C 440.41735 269.67189 428.096 258.93593 408.09722 280.95294 Z" stroke-linecap="round" />
</g>
<g transform="matrix(1 0 0 1 389.44 577.99)"  >
<path style="stroke: none; stroke-width: 1; stroke-dasharray: none; stroke-linecap: butt; stroke-dashoffset: 0; stroke-linejoin: miter; stroke-miterlimit: 4; fill: rgb(255,182,182); fill-rule: nonzero; opacity: 1;" vector-effect="non-scaling-stroke"  transform=" translate(-449.43, -487.93)" d="M 476.36329 502.76855 L 474.52013 359.21571 C 474.3201879522828 346.5620955178704 464.005474043698 336.4091059738675 451.35028 336.40914 L 451.35021 336.40914 C 444.9911350789871 336.4091441528636 438.91148991016905 339.0224193501279 434.5357944238704 343.6366498235935 C 430.1600989375718 348.2508802970591 427.8729034191503 354.4605525344547 428.21012 360.81068 L 434.69612 509.86821999999995 L 434.81925 600.60728 C 426.98801089473665 603.9283213399539 422.0724075029928 611.7952027285509 422.5207281283549 620.2897086071976 C 422.96904875371706 628.7842144858444 428.6854289648089 636.0899640551503 436.82274182840894 638.5682216820686 C 444.96005469200895 641.046479308987 453.7782980166733 638.1673189879577 458.8854164900843 631.3647487087152 C 463.9925349634953 624.5621784294727 464.29647307732307 615.2907922812132 459.64585 608.16834 Z" stroke-linecap="round" />
</g>
<g transform="matrix(1 0 0 1 550.53 777.39)"  >
<path style="stroke: none; stroke-width: 1; stroke-dasharray: none; stroke-linecap: butt; stroke-dashoffset: 0; stroke-linejoin: miter; stroke-miterlimit: 4; fill: rgb(47,46,65); fill-rule: nonzero; opacity: 1;" vector-effect="non-scaling-stroke"  transform=" translate(-610.53, -687.33)" d="M 718 688.49187 C 718 688.49187 715.15 739.7618699999999 713.84 769.0018699999999 L 615.7 769.0018699999999 C 613.6800000000001 742.3918699999999 613 722.84187 613 722.84187 L 607.63 769.0018699999999 L 508.43 769.0018699999999 L 502.28000000000003 683.5118699999999 L 532 609.84187 C 532 609.84187 693.06 598.67187 708 612.84187 C 722.93 627.00194 718 688.49187 718 688.49187 Z" stroke-linecap="round" />
</g>
<g transform="matrix(1 0 0 1 571.22 293.66)"  >
<circle style="stroke: none; stroke-width: 1; stroke-dasharray: none; stroke-linecap: butt; stroke-dashoffset: 0; stroke-linejoin: miter; stroke-miterlimit: 4; fill: rgb(255,182,182); fill-rule: nonzero; opacity: 1;" vector-effect="non-scaling-stroke"  cx="0" cy="0" r="53.60692" />
</g>
<g transform="matrix(1 0 0 1 572.2 276.01)"  >
<path style="stroke: none; stroke-width: 1; stroke-dasharray: none; stroke-linecap: butt; stroke-dashoffset: 0; stroke-linejoin: miter; stroke-miterlimit: 4; fill: rgb(47,46,65); fill-rule: nonzero; opacity: 1;" vector-effect="non-scaling-stroke"  transform=" translate(-632.2, -185.94)" d="M 693.70022 186.178 C 688.1940699999999 188.68869 684.6264 206.87243999999998 680.2986199999999 202.64509999999999 C 675.9708399999998 198.41776 676.2596899999999 192.91649999999998 670.4249799999999 191.35639999999998 C 665.7131399999998 190.09116999999998 660.6424499999999 191.53717999999998 656.3446099999999 193.81772999999998 C 655.5772099999999 194.22014 654.8332199999999 194.65767999999997 654.1081099999999 195.09282 C 653.6294599999999 194.77301 653.1531099999999 194.47208999999998 652.6417199999999 194.19446 C 648.7973716583471 192.1371506013328 644.3104425067579 191.63245249548095 640.1051199999998 192.78431999999998 C 643.4281078217722 193.89733735884542 646.3171457192891 196.02677231026158 648.3637199999998 198.87151999999998 C 646.9253199999998 199.83545999999998 645.4682899999998 200.80189 643.9780399999999 201.65819999999997 C 631.5278999999998 208.84297999999995 613.8118099999998 193.21997999999996 600.7067999999998 187.35079999999996 C 608.9153999999999 202.75479999999996 604.8734799999999 209.13430999999997 597.7460899999999 225.06532999999996 L 597.4999599999999 225.97246999999996 C 597.9048699999998 221.97969999999995 585.5495399999999 219.00411999999997 586.2660099999998 224.62474999999995 C 586.7747099999998 228.61539999999994 590.2282299999998 237.48556999999994 592.1625299999998 241.00896999999995 C 578.3841099999999 225.07723999999996 568.9683599999998 205.58118999999994 570.9551999999999 185.46936999999994 C 571.3876999999999 181.24450999999993 571.2573399999999 176.78679999999994 573.4364699999999 173.11986999999993 C 575.6178999999998 169.47186999999994 580.1657699999998 166.91186999999994 584.1891899999998 168.30298999999994 C 583.4946883782001 155.23518216160895 590.0373128525227 142.8428221523225 601.2197303880764 136.0455085458794 C 612.4021479236302 129.24819493943627 626.4152133269059 129.14562976366457 637.6959299999999 135.77852999999993 C 642.8407099999998 138.79738999999992 647.1357699999999 143.06701999999993 651.8510899999999 146.74991999999992 C 656.5665199999999 150.43278999999993 662.0022799999999 153.64302999999992 667.9814699999998 153.9470699999999 C 671.7746399999999 154.1300099999999 675.9024699999999 153.2039499999999 679.1611999999998 155.16852999999992 C 682.9361099999998 157.4481299999999 683.5825099999997 162.2208699999999 684.1489899999998 166.81343999999993 C 680.7820037419405 167.14537571488603 677.5904327221759 168.4736142860514 674.9820799999998 170.62843999999993 C 678.4658285154812 170.27308278183781 681.9729261864059 171.0253100604026 685.0044999999998 172.77811999999992 C 685.0619353136592 172.80416429646058 685.1168732649996 172.83539722304056 685.1686299999998 172.87142999999992 C 687.16438 180.46141 686.95993 182.144 693.70022 186.178 Z" stroke-linecap="round" />
</g>
<g transform="matrix(1 0 0 1 560.04 539.37)"  >
<path style="stroke: none; stroke-width: 1; stroke-dasharray: none; stroke-linecap: butt; stroke-dashoffset: 0; stroke-linejoin: miter; stroke-miterlimit: 4; fill: rgb(59,130,246); fill-rule: nonzero; opacity: 1;" vector-effect="non-scaling-stroke"  transform=" translate(-620.04, -449.31)" d="M 508.6679 635.777 C 554.31869 582.34184 538.89922 514.3767 520.7807799999999 445.7694200000001 L 524.2283399999999 344.4157000000001 C 524.571543810398 334.3260754699425 529.8057009482293 325.0353567279923 538.2574099999999 319.5138600000001 L 584.861 289.0678 L 603 262.84191 L 653 267.84191 L 680.72649 297.16391 L 711.41711 320.59376 C 727.1507796884116 332.6051688281123 734.4829413120277 352.65622476571264 730.20916 371.98384999999996 L 700.83948 504.80436 C 700.83948 504.80436 713.12331 573.65958 705.6279999999999 581.26405 C 698.1326899999999 588.86852 678.81958 581.26792 694.1350899999999 589.80447 C 712.5148499999999 600.04898 729.2267299999999 598.1586100000001 719.9255999999999 607.45974 C 710.62447 616.76087 722.3958499999999 629.69199 722.3958499999999 629.69199 Z" stroke-linecap="round" />
</g>
<g transform="matrix(1 0 0 1 454.64 785.34)"  >
<path style="stroke: none; stroke-width: 1; stroke-dasharray: none; stroke-linecap: butt; stroke-dashoffset: 0; stroke-linejoin: miter; stroke-miterlimit: 4; fill: rgb(255,182,182); fill-rule: nonzero; opacity: 1;" vector-effect="non-scaling-stroke"  transform=" translate(-514.64, -695.27)" d="M 528.18594 713.43646 L 535.7964599999999 659.21581 L 505.4291099999999 650.54672 L 499.42247999999995 708.15844 C 492.44286811463013 714.5581746539305 491.4873868073985 725.2211515526724 497.2180152929791 732.7598174075413 C 502.94864377855964 740.2984832624101 513.4785356321086 742.230683672341 521.5123419158112 737.2177461795078 C 529.5461481995139 732.2048086866746 532.4386863295691 721.8972753232674 528.18594 713.4364400000001 Z" stroke-linecap="round" />
</g>
<g transform="matrix(1 0 0 1 476.5 584.61)"  >
<path style="stroke: none; stroke-width: 1; stroke-dasharray: none; stroke-linecap: butt; stroke-dashoffset: 0; stroke-linejoin: miter; stroke-miterlimit: 4; fill: rgb(59,130,246); fill-rule: nonzero; opacity: 1;" vector-effect="non-scaling-stroke"  transform=" translate(-536.5, -494.55)" d="M 586 298.84191 C 586 298.84191 499.5616 326.97475 497.5005 347.55924 C 495.4394 368.14373 496.12293 380.74489 487 463.11505 L 487.48061 684.99824 C 487.48061 684.99824 545.43233 697.40576 539.48911 684.13974 C 533.54589 670.8737199999999 535.61963 664.6323199999999 535.61963 664.6323199999999 C 535.61963 664.6323199999999 548.04454 659.72921 544.93431 644.15285 C 541.82408 628.5764899999999 557.42147 551.3850799999999 557.42147 551.3850799999999 L 567.266 412.94623 Z" stroke-linecap="round" />
</g>
<g transform="matrix(1 0 0 1 647.62 783.8)"  >
<path style="stroke: none; stroke-width: 1; stroke-dasharray: none; stroke-linecap: butt; stroke-dashoffset: 0; stroke-linejoin: miter; stroke-miterlimit: 4; fill: rgb(255,182,182); fill-rule: nonzero; opacity: 1;" vector-effect="non-scaling-stroke"  transform=" translate(-707.62, -693.74)" d="M 692.58051 710.565 L 688.5304 655.96285 L 719.39947 649.29726 L 721.6274699999999 707.1784 C 728.173811656372 714.0206778731397 728.4302468031262 724.7232901094793 722.2191116798867 731.8712377908819 C 716.0079765566472 739.0191854722844 705.3743219926758 740.2589670175851 697.685371554194 734.7316352264061 C 689.9964211157121 729.2043034352272 687.7838045545082 718.7297630816354 692.5804699999999 710.565 Z" stroke-linecap="round" />
</g>
<g transform="matrix(1 0 0 1 646.02 580.43)"  >
<path style="stroke: none; stroke-width: 1; stroke-dasharray: none; stroke-linecap: butt; stroke-dashoffset: 0; stroke-linejoin: miter; stroke-miterlimit: 4; fill: rgb(59,130,246); fill-rule: nonzero; opacity: 1;" vector-effect="non-scaling-stroke"  transform=" translate(-706.02, -490.37)" d="M 661.99007 293.07805 C 661.99007 293.07805 746.40472 326.80077 747.1158999999999 347.47597 C 747.8270799999998 368.15117000000004 746.3213399999999 380.68069 750.0406399999999 463.47102 L 735.05764 684.84828 C 735.05764 684.84828 676.41883 693.44128 683.21648 680.59208 C 690.0141300000001 667.74288 688.35278 661.3793000000001 688.35278 661.3793000000001 C 688.35278 661.3793000000001 676.27494 655.67452 680.39666 640.33477 C 684.51838 624.9950200000001 674 546.94918 674 546.94918 L 673.22559 408.1628999999999 Z" stroke-linecap="round" />
</g>
<g transform="matrix(0 0 0 0 0 0)"  >
<g style=""   >
</g>
</g>
<g transform="matrix(0 0 0 0 0 0)"  >
<g style=""   >
</g>
</g>
<g transform="matrix(0 0 0 0 0 0)"  >
<g style=""   >
</g>
</g>
</svg>