<?xml version="1.0" encoding="UTF-8" standalone="no" ?>
<!DOCTYPE svg PUBLIC "-//W3C//DTD SVG 1.1//EN" "http://www.w3.org/Graphics/SVG/1.1/DTD/svg11.dtd">
<svg xmlns="http://www.w3.org/2000/svg" xmlns:xlink="http://www.w3.org/1999/xlink" version="1.1" width="1080" height="1080" viewBox="0 0 1080 1080" xml:space="preserve">
<desc>Created with Fabric.js 5.2.4</desc>
<defs>
</defs>
<g transform="matrix(1 0 0 1 540 540)" id="39630885-2339-428e-8d8d-e8d461b8fe7a"  >
</g>
<g transform="matrix(1 0 0 1 540 540)" id="e2dd36e1-5bc3-403b-9872-bb846ef97541"  >
<rect style="stroke: none; stroke-width: 1; stroke-dasharray: none; stroke-linecap: butt; stroke-dashoffset: 0; stroke-linejoin: miter; stroke-miterlimit: 4; fill: rgb(255,255,255); fill-rule: nonzero; opacity: 1; visibility: hidden;" vector-effect="non-scaling-stroke"  x="-540" y="-540" rx="0" ry="0" width="1080" height="1080" />
</g>
<g transform="matrix(1.11 0 0 1.11 259.08 392.75)"  >
<path style="stroke: none; stroke-width: 1; stroke-dasharray: none; stroke-linecap: butt; stroke-dashoffset: 0; stroke-linejoin: miter; stroke-miterlimit: 4; fill: rgb(230,230,230); fill-rule: nonzero; opacity: 1;" vector-effect="non-scaling-stroke"  transform=" translate(-348.03, -318.02)" d="M 341.17319 342.44851 C 342.40864198681703 329.1430518995185 345.82088808211483 316.13081454252085 351.27369999999996 303.93129000000005 Q 353.55330999999995 298.8388 356.29182 293.97053 C 356.4820853848506 293.6177260379424 356.35856099641865 293.1776067081136 356.0125052676574 292.9753272358298 C 355.6664495388962 292.77304776354606 355.22234451174245 292.8813714630917 355.00829 293.22026999999997 C 348.369017878754 305.04120851465115 343.7177588914759 317.8730015930719 341.24048999999997 331.2025799999999 Q 340.20682 336.78613999999993 339.68670999999995 342.44850999999994 C 339.5986 343.4006499999999 341.08563999999996 343.3946399999999 341.1731899999999 342.44850999999994 Z" stroke-linecap="round" />
</g>
<g transform="matrix(1.11 0 0 1.11 272.29 358.18)"  >
<circle style="stroke: none; stroke-width: 1; stroke-dasharray: none; stroke-linecap: butt; stroke-dashoffset: 0; stroke-linejoin: miter; stroke-miterlimit: 4; fill: rgb(230,230,230); fill-rule: nonzero; opacity: 1;" vector-effect="non-scaling-stroke"  cx="0" cy="0" r="9.4144" />
</g>
<g transform="matrix(1.11 0 0 1.11 257.48 402.64)"  >
<path style="stroke: none; stroke-width: 1; stroke-dasharray: none; stroke-linecap: butt; stroke-dashoffset: 0; stroke-linejoin: miter; stroke-miterlimit: 4; fill: rgb(230,230,230); fill-rule: nonzero; opacity: 1;" vector-effect="non-scaling-stroke"  transform=" translate(-346.59, -326.85)" d="M 342.13622 342.69855 C 342.93771345277236 334.0666777052936 345.15139603698964 325.6250312741725 348.68888999999996 317.7106300000001 Q 350.16777999999994 314.40691000000004 351.94437999999997 311.24863000000005 C 352.0678127577598 311.0197486339857 351.98767569418277 310.7342229178366 351.76317284641027 310.6029948844793 C 351.53866999863783 310.47176685112197 351.2505581815937 310.54204105990976 351.11168999999995 310.7619 C 346.80448889703575 318.430693628274 343.7870017728452 326.75527378656176 342.17987999999997 335.4027900000001 Q 341.50928999999996 339.02509000000003 341.17188 342.69855 C 341.11472 343.31625 342.07943 343.31235000000004 342.13623 342.69855 Z" stroke-linecap="round" />
</g>
<g transform="matrix(1.11 0 0 1.11 266.05 380.21)"  >
<circle style="stroke: none; stroke-width: 1; stroke-dasharray: none; stroke-linecap: butt; stroke-dashoffset: 0; stroke-linejoin: miter; stroke-miterlimit: 4; fill: rgb(230,230,230); fill-rule: nonzero; opacity: 1;" vector-effect="non-scaling-stroke"  cx="0" cy="0" r="6.10756" />
</g>
<g transform="matrix(1.11 0 0 1.11 244.2 402.71)"  >
<path style="stroke: none; stroke-width: 1; stroke-dasharray: none; stroke-linecap: butt; stroke-dashoffset: 0; stroke-linejoin: miter; stroke-miterlimit: 4; fill: rgb(230,230,230); fill-rule: nonzero; opacity: 1;" vector-effect="non-scaling-stroke"  transform=" translate(-334.68, -326.9)" d="M 340.91907 342.122 C 336.24191677206846 334.8229701780302 332.7952459339032 326.80535019727233 330.71666 318.38923 Q 329.85074 314.8747 329.30903 311.29174 C 329.2655950059297 311.03533577612404 329.02678348040877 310.85947333167246 328.76904027739283 310.89408786663125 C 328.5112970743769 310.9287024015901 328.3273466619687 311.16134115559504 328.3531 311.42012 C 329.6737246882293 320.11600007075856 332.41460841010485 328.53570421729444 336.46616 336.34258 Q 338.16536 339.61116 340.15869 342.71513 C 340.49354 343.23733 341.2518 342.6409 340.91907 342.122 Z" stroke-linecap="round" />
</g>
<g transform="matrix(1.11 0 0 1.11 237.14 379.74)"  >
<circle style="stroke: none; stroke-width: 1; stroke-dasharray: none; stroke-linecap: butt; stroke-dashoffset: 0; stroke-linejoin: miter; stroke-miterlimit: 4; fill: rgb(230,230,230); fill-rule: nonzero; opacity: 1;" vector-effect="non-scaling-stroke"  cx="0" cy="0" r="6.10756" />
</g>
<g transform="matrix(1.11 0 0 1.11 250.82 419.02)"  >
<path style="stroke: none; stroke-width: 1; stroke-dasharray: none; stroke-linecap: butt; stroke-dashoffset: 0; stroke-linejoin: miter; stroke-miterlimit: 4; fill: rgb(242,242,242); fill-rule: nonzero; opacity: 1;" vector-effect="non-scaling-stroke"  transform=" translate(-340.67, -341.53)" d="M 322.16929 347.52572 L 322.16929 335.52572 C 322.1720895584939 333.041599164951 324.185169164951 331.0285195584939 326.66929 331.02572 L 354.66929 331.02572 C 357.153410835049 331.0285195584939 359.1664904415061 333.041599164951 359.16929 335.52572 L 359.16929 347.52572 C 359.1664904415061 350.009840835049 357.153410835049 352.0229204415061 354.66929 352.02572 L 326.66929 352.02572 C 324.185169164951 352.0229204415061 322.1720895584939 350.009840835049 322.16929 347.52572 Z" stroke-linecap="round" />
</g>
<g transform="matrix(1.11 0 0 1.11 258.66 308.02)"  >
<path style="stroke: none; stroke-width: 1; stroke-dasharray: none; stroke-linecap: butt; stroke-dashoffset: 0; stroke-linejoin: miter; stroke-miterlimit: 4; fill: rgb(242,242,242); fill-rule: nonzero; opacity: 1;" vector-effect="non-scaling-stroke"  transform=" translate(-347.67, -242.03)" d="M 353.66929 271.02572 L 341.66929 271.02572 C 339.185169164951 271.0229204415061 337.1720895584939 269.009840835049 337.16929 266.52572 L 337.16929 217.52571999999998 C 337.1720895584939 215.04159916495098 339.185169164951 213.02851955849388 341.66929 213.02571999999998 L 353.66929 213.02571999999998 C 356.153410835049 213.02851955849388 358.1664904415061 215.04159916495098 358.16929 217.52571999999998 L 358.16929 266.52572 C 358.1664904415061 269.009840835049 356.153410835049 271.0229204415061 353.66929 271.02572 Z" stroke-linecap="round" />
</g>
<g transform="matrix(1.11 0 0 1.11 258.66 288.64)"  >
<rect style="stroke: none; stroke-width: 1; stroke-dasharray: none; stroke-linecap: butt; stroke-dashoffset: 0; stroke-linejoin: miter; stroke-miterlimit: 4; fill: rgb(204,204,204); fill-rule: nonzero; opacity: 1;" vector-effect="non-scaling-stroke"  x="-10" y="-2" rx="0" ry="0" width="20" height="4" />
</g>
<g transform="matrix(1.11 0 0 1.11 258.66 323.2)"  >
<rect style="stroke: none; stroke-width: 1; stroke-dasharray: none; stroke-linecap: butt; stroke-dashoffset: 0; stroke-linejoin: miter; stroke-miterlimit: 4; fill: rgb(204,204,204); fill-rule: nonzero; opacity: 1;" vector-effect="non-scaling-stroke"  x="-10" y="-2" rx="0" ry="0" width="20" height="4" />
</g>
<g transform="matrix(1.11 0 0 1.11 292.11 308.02)"  >
<path style="stroke: none; stroke-width: 1; stroke-dasharray: none; stroke-linecap: butt; stroke-dashoffset: 0; stroke-linejoin: miter; stroke-miterlimit: 4; fill: rgb(242,242,242); fill-rule: nonzero; opacity: 1;" vector-effect="non-scaling-stroke"  transform=" translate(-377.67, -242.03)" d="M 383.66929 271.02572 L 371.66929 271.02572 C 369.185169164951 271.0229204415061 367.1720895584939 269.009840835049 367.16929 266.52572 L 367.16929 217.52571999999998 C 367.1720895584939 215.04159916495098 369.185169164951 213.02851955849388 371.66929 213.02571999999998 L 383.66929 213.02571999999998 C 386.153410835049 213.02851955849388 388.1664904415061 215.04159916495098 388.16929 217.52571999999998 L 388.16929 266.52572 C 388.1664904415061 269.009840835049 386.153410835049 271.0229204415061 383.66929 271.02572 Z" stroke-linecap="round" />
</g>
<g transform="matrix(1.11 0 0 1.11 292.11 288.64)"  >
<rect style="stroke: none; stroke-width: 1; stroke-dasharray: none; stroke-linecap: butt; stroke-dashoffset: 0; stroke-linejoin: miter; stroke-miterlimit: 4; fill: rgb(204,204,204); fill-rule: nonzero; opacity: 1;" vector-effect="non-scaling-stroke"  x="-10" y="-2" rx="0" ry="0" width="20" height="4" />
</g>
<g transform="matrix(1.11 0 0 1.11 292.11 323.2)"  >
<rect style="stroke: none; stroke-width: 1; stroke-dasharray: none; stroke-linecap: butt; stroke-dashoffset: 0; stroke-linejoin: miter; stroke-miterlimit: 4; fill: rgb(204,204,204); fill-rule: nonzero; opacity: 1;" vector-effect="non-scaling-stroke"  x="-10" y="-2" rx="0" ry="0" width="20" height="4" />
</g>
<g transform="matrix(1.11 0 0 1.11 325.54 308.02)"  >
<path style="stroke: none; stroke-width: 1; stroke-dasharray: none; stroke-linecap: butt; stroke-dashoffset: 0; stroke-linejoin: miter; stroke-miterlimit: 4; fill: rgb(242,242,242); fill-rule: nonzero; opacity: 1;" vector-effect="non-scaling-stroke"  transform=" translate(-407.67, -242.03)" d="M 413.66929 271.02572 L 401.66929 271.02572 C 399.185169164951 271.0229204415061 397.1720895584939 269.009840835049 397.16929 266.52572 L 397.16929 217.52571999999998 C 397.1720895584939 215.04159916495098 399.185169164951 213.02851955849388 401.66929 213.02571999999998 L 413.66929 213.02571999999998 C 416.153410835049 213.02851955849388 418.1664904415061 215.04159916495098 418.16929 217.52571999999998 L 418.16929 266.52572 C 418.1664904415061 269.009840835049 416.153410835049 271.0229204415061 413.66929 271.02572 Z" stroke-linecap="round" />
</g>
<g transform="matrix(1.11 0 0 1.11 325.55 288.64)"  >
<rect style="stroke: none; stroke-width: 1; stroke-dasharray: none; stroke-linecap: butt; stroke-dashoffset: 0; stroke-linejoin: miter; stroke-miterlimit: 4; fill: rgb(204,204,204); fill-rule: nonzero; opacity: 1;" vector-effect="non-scaling-stroke"  x="-10" y="-2" rx="0" ry="0" width="20" height="4" />
</g>
<g transform="matrix(1.11 0 0 1.11 325.55 323.2)"  >
<rect style="stroke: none; stroke-width: 1; stroke-dasharray: none; stroke-linecap: butt; stroke-dashoffset: 0; stroke-linejoin: miter; stroke-miterlimit: 4; fill: rgb(204,204,204); fill-rule: nonzero; opacity: 1;" vector-effect="non-scaling-stroke"  x="-10" y="-2" rx="0" ry="0" width="20" height="4" />
</g>
<g transform="matrix(1.11 0 0 1.11 343.38 398.32)"  >
<path style="stroke: none; stroke-width: 1; stroke-dasharray: none; stroke-linecap: butt; stroke-dashoffset: 0; stroke-linejoin: miter; stroke-miterlimit: 4; fill: rgb(242,242,242); fill-rule: nonzero; opacity: 1;" vector-effect="non-scaling-stroke"  transform=" translate(-423.67, -323.03)" d="M 429.66929 352.02572 L 417.66929 352.02572 C 415.185169164951 352.0229204415061 413.1720895584939 350.009840835049 413.16929 347.52572 L 413.16929 298.52572 C 413.1720895584939 296.041599164951 415.185169164951 294.0285195584939 417.66929 294.02572 L 429.66929 294.02572 C 432.153410835049 294.0285195584939 434.1664904415061 296.041599164951 434.16929 298.52572 L 434.16929 347.52572 C 434.1664904415061 350.009840835049 432.153410835049 352.0229204415061 429.66929 352.02572 Z" stroke-linecap="round" />
</g>
<g transform="matrix(1.11 0 0 1.11 343.39 378.94)"  >
<rect style="stroke: none; stroke-width: 1; stroke-dasharray: none; stroke-linecap: butt; stroke-dashoffset: 0; stroke-linejoin: miter; stroke-miterlimit: 4; fill: rgb(204,204,204); fill-rule: nonzero; opacity: 1;" vector-effect="non-scaling-stroke"  x="-10" y="-2" rx="0" ry="0" width="20" height="4" />
</g>
<g transform="matrix(1.11 0 0 1.11 343.39 413.5)"  >
<rect style="stroke: none; stroke-width: 1; stroke-dasharray: none; stroke-linecap: butt; stroke-dashoffset: 0; stroke-linejoin: miter; stroke-miterlimit: 4; fill: rgb(204,204,204); fill-rule: nonzero; opacity: 1;" vector-effect="non-scaling-stroke"  x="-10" y="-2" rx="0" ry="0" width="20" height="4" />
</g>
<g transform="matrix(1.11 0 0 1.11 376.83 398.32)"  >
<path style="stroke: none; stroke-width: 1; stroke-dasharray: none; stroke-linecap: butt; stroke-dashoffset: 0; stroke-linejoin: miter; stroke-miterlimit: 4; fill: rgb(242,242,242); fill-rule: nonzero; opacity: 1;" vector-effect="non-scaling-stroke"  transform=" translate(-453.67, -323.03)" d="M 459.66929 352.02572 L 447.66929 352.02572 C 445.185169164951 352.0229204415061 443.1720895584939 350.009840835049 443.16929 347.52572 L 443.16929 298.52572 C 443.1720895584939 296.041599164951 445.185169164951 294.0285195584939 447.66929 294.02572 L 459.66929 294.02572 C 462.153410835049 294.0285195584939 464.1664904415061 296.041599164951 464.16929 298.52572 L 464.16929 347.52572 C 464.1664904415061 350.009840835049 462.153410835049 352.0229204415061 459.66929 352.02572 Z" stroke-linecap="round" />
</g>
<g transform="matrix(1.11 0 0 1.11 376.83 378.94)"  >
<rect style="stroke: none; stroke-width: 1; stroke-dasharray: none; stroke-linecap: butt; stroke-dashoffset: 0; stroke-linejoin: miter; stroke-miterlimit: 4; fill: rgb(204,204,204); fill-rule: nonzero; opacity: 1;" vector-effect="non-scaling-stroke"  x="-10" y="-2" rx="0" ry="0" width="20" height="4" />
</g>
<g transform="matrix(1.11 0 0 1.11 376.83 413.5)"  >
<rect style="stroke: none; stroke-width: 1; stroke-dasharray: none; stroke-linecap: butt; stroke-dashoffset: 0; stroke-linejoin: miter; stroke-miterlimit: 4; fill: rgb(204,204,204); fill-rule: nonzero; opacity: 1;" vector-effect="non-scaling-stroke"  x="-10" y="-2" rx="0" ry="0" width="20" height="4" />
</g>
<g transform="matrix(1.11 0 0 1.11 410.26 398.32)"  >
<path style="stroke: none; stroke-width: 1; stroke-dasharray: none; stroke-linecap: butt; stroke-dashoffset: 0; stroke-linejoin: miter; stroke-miterlimit: 4; fill: rgb(242,242,242); fill-rule: nonzero; opacity: 1;" vector-effect="non-scaling-stroke"  transform=" translate(-483.67, -323.03)" d="M 489.66929 352.02572 L 477.66929 352.02572 C 475.185169164951 352.0229204415061 473.1720895584939 350.009840835049 473.16929 347.52572 L 473.16929 298.52572 C 473.1720895584939 296.041599164951 475.185169164951 294.0285195584939 477.66929 294.02572 L 489.66929 294.02572 C 492.153410835049 294.0285195584939 494.1664904415061 296.041599164951 494.16929 298.52572 L 494.16929 347.52572 C 494.1664904415061 350.009840835049 492.153410835049 352.0229204415061 489.66929 352.02572 Z" stroke-linecap="round" />
</g>
<g transform="matrix(1.11 0 0 1.11 410.27 378.94)"  >
<rect style="stroke: none; stroke-width: 1; stroke-dasharray: none; stroke-linecap: butt; stroke-dashoffset: 0; stroke-linejoin: miter; stroke-miterlimit: 4; fill: rgb(204,204,204); fill-rule: nonzero; opacity: 1;" vector-effect="non-scaling-stroke"  x="-10" y="-2" rx="0" ry="0" width="20" height="4" />
</g>
<g transform="matrix(1.11 0 0 1.11 410.27 413.5)"  >
<rect style="stroke: none; stroke-width: 1; stroke-dasharray: none; stroke-linecap: butt; stroke-dashoffset: 0; stroke-linejoin: miter; stroke-miterlimit: 4; fill: rgb(204,204,204); fill-rule: nonzero; opacity: 1;" vector-effect="non-scaling-stroke"  x="-10" y="-2" rx="0" ry="0" width="20" height="4" />
</g>
<g transform="matrix(1.11 0 0 1.11 255.31 488.61)"  >
<path style="stroke: none; stroke-width: 1; stroke-dasharray: none; stroke-linecap: butt; stroke-dashoffset: 0; stroke-linejoin: miter; stroke-miterlimit: 4; fill: rgb(242,242,242); fill-rule: nonzero; opacity: 1;" vector-effect="non-scaling-stroke"  transform=" translate(-344.67, -404.03)" d="M 350.66929 433.02572 L 338.66929 433.02572 C 336.185169164951 433.0229204415061 334.1720895584939 431.009840835049 334.16929 428.52572 L 334.16929 379.52572 C 334.1720895584939 377.041599164951 336.185169164951 375.0285195584939 338.66929 375.02572 L 350.66929 375.02572 C 353.153410835049 375.0285195584939 355.1664904415061 377.041599164951 355.16929 379.52572 L 355.16929 428.52572 C 355.1664904415061 431.009840835049 353.153410835049 433.0229204415061 350.66929 433.02572 Z" stroke-linecap="round" />
</g>
<g transform="matrix(1.11 0 0 1.11 255.32 469.23)"  >
<rect style="stroke: none; stroke-width: 1; stroke-dasharray: none; stroke-linecap: butt; stroke-dashoffset: 0; stroke-linejoin: miter; stroke-miterlimit: 4; fill: rgb(204,204,204); fill-rule: nonzero; opacity: 1;" vector-effect="non-scaling-stroke"  x="-10" y="-2" rx="0" ry="0" width="20" height="4" />
</g>
<g transform="matrix(1.11 0 0 1.11 255.32 503.79)"  >
<rect style="stroke: none; stroke-width: 1; stroke-dasharray: none; stroke-linecap: butt; stroke-dashoffset: 0; stroke-linejoin: miter; stroke-miterlimit: 4; fill: rgb(204,204,204); fill-rule: nonzero; opacity: 1;" vector-effect="non-scaling-stroke"  x="-10" y="-2" rx="0" ry="0" width="20" height="4" />
</g>
<g transform="matrix(1.11 0 0 1.11 288.76 488.61)"  >
<path style="stroke: none; stroke-width: 1; stroke-dasharray: none; stroke-linecap: butt; stroke-dashoffset: 0; stroke-linejoin: miter; stroke-miterlimit: 4; fill: rgb(242,242,242); fill-rule: nonzero; opacity: 1;" vector-effect="non-scaling-stroke"  transform=" translate(-374.67, -404.03)" d="M 380.66929 433.02572 L 368.66929 433.02572 C 366.185169164951 433.0229204415061 364.1720895584939 431.009840835049 364.16929 428.52572 L 364.16929 379.52572 C 364.1720895584939 377.041599164951 366.185169164951 375.0285195584939 368.66929 375.02572 L 380.66929 375.02572 C 383.153410835049 375.0285195584939 385.1664904415061 377.041599164951 385.16929 379.52572 L 385.16929 428.52572 C 385.1664904415061 431.009840835049 383.153410835049 433.0229204415061 380.66929 433.02572 Z" stroke-linecap="round" />
</g>
<g transform="matrix(1.11 0 0 1.11 288.76 469.23)"  >
<rect style="stroke: none; stroke-width: 1; stroke-dasharray: none; stroke-linecap: butt; stroke-dashoffset: 0; stroke-linejoin: miter; stroke-miterlimit: 4; fill: rgb(204,204,204); fill-rule: nonzero; opacity: 1;" vector-effect="non-scaling-stroke"  x="-10" y="-2" rx="0" ry="0" width="20" height="4" />
</g>
<g transform="matrix(1.11 0 0 1.11 288.76 503.79)"  >
<rect style="stroke: none; stroke-width: 1; stroke-dasharray: none; stroke-linecap: butt; stroke-dashoffset: 0; stroke-linejoin: miter; stroke-miterlimit: 4; fill: rgb(204,204,204); fill-rule: nonzero; opacity: 1;" vector-effect="non-scaling-stroke"  x="-10" y="-2" rx="0" ry="0" width="20" height="4" />
</g>
<g transform="matrix(1.11 0 0 1.11 322.21 488.61)"  >
<path style="stroke: none; stroke-width: 1; stroke-dasharray: none; stroke-linecap: butt; stroke-dashoffset: 0; stroke-linejoin: miter; stroke-miterlimit: 4; fill: rgb(242,242,242); fill-rule: nonzero; opacity: 1;" vector-effect="non-scaling-stroke"  transform=" translate(-404.67, -404.03)" d="M 410.66929 433.02572 L 398.66929 433.02572 C 396.185169164951 433.0229204415061 394.1720895584939 431.009840835049 394.16929 428.52572 L 394.16929 379.52572 C 394.1720895584939 377.041599164951 396.185169164951 375.0285195584939 398.66929 375.02572 L 410.66929 375.02572 C 413.153410835049 375.0285195584939 415.1664904415061 377.041599164951 415.16929 379.52572 L 415.16929 428.52572 C 415.1664904415061 431.009840835049 413.153410835049 433.0229204415061 410.66929 433.02572 Z" stroke-linecap="round" />
</g>
<g transform="matrix(1.11 0 0 1.11 322.21 469.23)"  >
<rect style="stroke: none; stroke-width: 1; stroke-dasharray: none; stroke-linecap: butt; stroke-dashoffset: 0; stroke-linejoin: miter; stroke-miterlimit: 4; fill: rgb(204,204,204); fill-rule: nonzero; opacity: 1;" vector-effect="non-scaling-stroke"  x="-10" y="-2" rx="0" ry="0" width="20" height="4" />
</g>
<g transform="matrix(1.11 0 0 1.11 322.21 503.79)"  >
<rect style="stroke: none; stroke-width: 1; stroke-dasharray: none; stroke-linecap: butt; stroke-dashoffset: 0; stroke-linejoin: miter; stroke-miterlimit: 4; fill: rgb(204,204,204); fill-rule: nonzero; opacity: 1;" vector-effect="non-scaling-stroke"  x="-10" y="-2" rx="0" ry="0" width="20" height="4" />
</g>
<g transform="matrix(1.11 0 0 1.11 359 308.02)"  >
<path style="stroke: none; stroke-width: 1; stroke-dasharray: none; stroke-linecap: butt; stroke-dashoffset: 0; stroke-linejoin: miter; stroke-miterlimit: 4; fill: rgb(242,242,242); fill-rule: nonzero; opacity: 1;" vector-effect="non-scaling-stroke"  transform=" translate(-437.67, -242.03)" d="M 443.66929 271.02572 L 431.66929 271.02572 C 429.185169164951 271.0229204415061 427.1720895584939 269.009840835049 427.16929 266.52572 L 427.16929 217.52571999999998 C 427.1720895584939 215.04159916495098 429.185169164951 213.02851955849388 431.66929 213.02571999999998 L 443.66929 213.02571999999998 C 446.153410835049 213.02851955849388 448.1664904415061 215.04159916495098 448.16929 217.52571999999998 L 448.16929 266.52572 C 448.1664904415061 269.009840835049 446.153410835049 271.0229204415061 443.66929 271.02572 Z" stroke-linecap="round" />
</g>
<g transform="matrix(1.11 0 0 1.11 358.99 288.64)"  >
<rect style="stroke: none; stroke-width: 1; stroke-dasharray: none; stroke-linecap: butt; stroke-dashoffset: 0; stroke-linejoin: miter; stroke-miterlimit: 4; fill: rgb(204,204,204); fill-rule: nonzero; opacity: 1;" vector-effect="non-scaling-stroke"  x="-10" y="-2" rx="0" ry="0" width="20" height="4" />
</g>
<g transform="matrix(1.11 0 0 1.11 358.99 323.2)"  >
<rect style="stroke: none; stroke-width: 1; stroke-dasharray: none; stroke-linecap: butt; stroke-dashoffset: 0; stroke-linejoin: miter; stroke-miterlimit: 4; fill: rgb(204,204,204); fill-rule: nonzero; opacity: 1;" vector-effect="non-scaling-stroke"  x="-10" y="-2" rx="0" ry="0" width="20" height="4" />
</g>
<g transform="matrix(1.11 0 0 1.11 392.43 308.02)"  >
<path style="stroke: none; stroke-width: 1; stroke-dasharray: none; stroke-linecap: butt; stroke-dashoffset: 0; stroke-linejoin: miter; stroke-miterlimit: 4; fill: rgb(242,242,242); fill-rule: nonzero; opacity: 1;" vector-effect="non-scaling-stroke"  transform=" translate(-467.67, -242.03)" d="M 473.66929 271.02572 L 461.66929 271.02572 C 459.185169164951 271.0229204415061 457.1720895584939 269.009840835049 457.16929 266.52572 L 457.16929 217.52571999999998 C 457.1720895584939 215.04159916495098 459.185169164951 213.02851955849388 461.66929 213.02571999999998 L 473.66929 213.02571999999998 C 476.153410835049 213.02851955849388 478.1664904415061 215.04159916495098 478.16929 217.52571999999998 L 478.16929 266.52572 C 478.1664904415061 269.009840835049 476.153410835049 271.0229204415061 473.66929 271.02572 Z" stroke-linecap="round" />
</g>
<g transform="matrix(1.11 0 0 1.11 392.43 288.64)"  >
<rect style="stroke: none; stroke-width: 1; stroke-dasharray: none; stroke-linecap: butt; stroke-dashoffset: 0; stroke-linejoin: miter; stroke-miterlimit: 4; fill: rgb(204,204,204); fill-rule: nonzero; opacity: 1;" vector-effect="non-scaling-stroke"  x="-10" y="-2" rx="0" ry="0" width="20" height="4" />
</g>
<g transform="matrix(1.11 0 0 1.11 392.43 323.2)"  >
<rect style="stroke: none; stroke-width: 1; stroke-dasharray: none; stroke-linecap: butt; stroke-dashoffset: 0; stroke-linejoin: miter; stroke-miterlimit: 4; fill: rgb(204,204,204); fill-rule: nonzero; opacity: 1;" vector-effect="non-scaling-stroke"  x="-10" y="-2" rx="0" ry="0" width="20" height="4" />
</g>
<g transform="matrix(1.11 0 0 1.11 425.88 308.02)"  >
<path style="stroke: none; stroke-width: 1; stroke-dasharray: none; stroke-linecap: butt; stroke-dashoffset: 0; stroke-linejoin: miter; stroke-miterlimit: 4; fill: rgb(242,242,242); fill-rule: nonzero; opacity: 1;" vector-effect="non-scaling-stroke"  transform=" translate(-497.67, -242.03)" d="M 503.66929 271.02572 L 491.66929 271.02572 C 489.185169164951 271.0229204415061 487.1720895584939 269.009840835049 487.16929 266.52572 L 487.16929 217.52571999999998 C 487.1720895584939 215.04159916495098 489.185169164951 213.02851955849388 491.66929 213.02571999999998 L 503.66929 213.02571999999998 C 506.153410835049 213.02851955849388 508.1664904415061 215.04159916495098 508.16929 217.52571999999998 L 508.16929 266.52572 C 508.1664904415061 269.009840835049 506.153410835049 271.0229204415061 503.66929 271.02572 Z" stroke-linecap="round" />
</g>
<g transform="matrix(1.11 0 0 1.11 425.88 288.64)"  >
<rect style="stroke: none; stroke-width: 1; stroke-dasharray: none; stroke-linecap: butt; stroke-dashoffset: 0; stroke-linejoin: miter; stroke-miterlimit: 4; fill: rgb(204,204,204); fill-rule: nonzero; opacity: 1;" vector-effect="non-scaling-stroke"  x="-10" y="-2" rx="0" ry="0" width="20" height="4" />
</g>
<g transform="matrix(1.11 0 0 1.11 425.88 323.2)"  >
<rect style="stroke: none; stroke-width: 1; stroke-dasharray: none; stroke-linecap: butt; stroke-dashoffset: 0; stroke-linejoin: miter; stroke-miterlimit: 4; fill: rgb(204,204,204); fill-rule: nonzero; opacity: 1;" vector-effect="non-scaling-stroke"  x="-10" y="-2" rx="0" ry="0" width="20" height="4" />
</g>
<g transform="matrix(1.11 0 0 1.11 459.32 308.02)"  >
<path style="stroke: none; stroke-width: 1; stroke-dasharray: none; stroke-linecap: butt; stroke-dashoffset: 0; stroke-linejoin: miter; stroke-miterlimit: 4; fill: rgb(242,242,242); fill-rule: nonzero; opacity: 1;" vector-effect="non-scaling-stroke"  transform=" translate(-527.67, -242.03)" d="M 533.66929 271.02572 L 521.66929 271.02572 C 519.185169164951 271.0229204415061 517.1720895584939 269.009840835049 517.16929 266.52572 L 517.16929 217.52571999999998 C 517.1720895584939 215.04159916495098 519.185169164951 213.02851955849388 521.66929 213.02571999999998 L 533.66929 213.02571999999998 C 536.153410835049 213.02851955849388 538.1664904415062 215.04159916495098 538.16929 217.52571999999998 L 538.16929 266.52572 C 538.1664904415062 269.009840835049 536.153410835049 271.0229204415061 533.66929 271.02572 Z" stroke-linecap="round" />
</g>
<g transform="matrix(1.11 0 0 1.11 459.32 288.64)"  >
<rect style="stroke: none; stroke-width: 1; stroke-dasharray: none; stroke-linecap: butt; stroke-dashoffset: 0; stroke-linejoin: miter; stroke-miterlimit: 4; fill: rgb(204,204,204); fill-rule: nonzero; opacity: 1;" vector-effect="non-scaling-stroke"  x="-10" y="-2" rx="0" ry="0" width="20" height="4" />
</g>
<g transform="matrix(1.11 0 0 1.11 459.32 323.2)"  >
<rect style="stroke: none; stroke-width: 1; stroke-dasharray: none; stroke-linecap: butt; stroke-dashoffset: 0; stroke-linejoin: miter; stroke-miterlimit: 4; fill: rgb(204,204,204); fill-rule: nonzero; opacity: 1;" vector-effect="non-scaling-stroke"  x="-10" y="-2" rx="0" ry="0" width="20" height="4" />
</g>
<g transform="matrix(1.11 0 0 1.11 356.63 341.04)"  >
<path style="stroke: none; stroke-width: 1; stroke-dasharray: none; stroke-linecap: butt; stroke-dashoffset: 0; stroke-linejoin: miter; stroke-miterlimit: 4; fill: rgb(204,204,204); fill-rule: nonzero; opacity: 1;" vector-effect="non-scaling-stroke"  transform=" translate(-436.11, -271.53)" d="M 578.61024 272.52572 L 293.61024 272.52572 C 293.0579552501692 272.52572 292.61024 272.07800474983077 292.61024 271.52572 C 292.61024 270.9734352501692 293.0579552501692 270.52572 293.61024 270.52572 L 578.61024 270.52572 C 579.1625247498308 270.52572 579.61024 270.9734352501692 579.61024 271.52572 C 579.61024 272.07800474983077 579.1625247498308 272.52572 578.61024 272.52572 Z" stroke-linecap="round" />
</g>
<g transform="matrix(1.11 0 0 1.11 356.63 431.34)"  >
<path style="stroke: none; stroke-width: 1; stroke-dasharray: none; stroke-linecap: butt; stroke-dashoffset: 0; stroke-linejoin: miter; stroke-miterlimit: 4; fill: rgb(204,204,204); fill-rule: nonzero; opacity: 1;" vector-effect="non-scaling-stroke"  transform=" translate(-436.11, -352.53)" d="M 578.61024 353.52572 L 293.61024 353.52572 C 293.0579552501692 353.52572 292.61024 353.07800474983077 292.61024 352.52572 C 292.61024 351.9734352501692 293.0579552501692 351.52572 293.61024 351.52572 L 578.61024 351.52572 C 579.1625247498308 351.52572 579.61024 351.9734352501692 579.61024 352.52572 C 579.61024 353.07800474983077 579.1625247498308 353.52572 578.61024 353.52572 Z" stroke-linecap="round" />
</g>
<g transform="matrix(1.11 0 0 1.11 356.63 521.63)"  >
<path style="stroke: none; stroke-width: 1; stroke-dasharray: none; stroke-linecap: butt; stroke-dashoffset: 0; stroke-linejoin: miter; stroke-miterlimit: 4; fill: rgb(204,204,204); fill-rule: nonzero; opacity: 1;" vector-effect="non-scaling-stroke"  transform=" translate(-436.11, -433.53)" d="M 578.61024 434.52572 L 293.61024 434.52572 C 293.0579552501692 434.52572 292.61024 434.07800474983077 292.61024 433.52572 C 292.61024 432.9734352501692 293.0579552501692 432.52572 293.61024 432.52572 L 578.61024 432.52572 C 579.1625247498308 432.52572 579.61024 432.9734352501692 579.61024 433.52572 C 579.61024 434.07800474983077 579.1625247498308 434.52572 578.61024 434.52572 Z" stroke-linecap="round" />
</g>
<g transform="matrix(1.11 0 0 1.11 424.57 742.63)"  >
<path style="stroke: none; stroke-width: 1; stroke-dasharray: none; stroke-linecap: butt; stroke-dashoffset: 0; stroke-linejoin: miter; stroke-miterlimit: 4; fill: rgb(204,204,204); fill-rule: nonzero; opacity: 1;" vector-effect="non-scaling-stroke"  transform=" translate(-496.73, -632.01)" d="M 561.73228 591.508 C 561.73228 583.7760000000001 532.63072 577.508 496.73227999999995 577.508 C 460.8338399999999 577.508 431.73227999999995 583.7760000000001 431.73227999999995 591.508 C 431.73227999999995 596.4634500000001 443.69663999999995 600.8142200000001 461.73227999999995 603.30232 L 461.73227999999995 680.008 C 461.73227999999995 683.5978508739001 464.6424291260998 686.508 468.23227999999995 686.508 C 471.8221308739001 686.508 474.73227999999995 683.5978508739001 474.73227999999995 680.008 L 474.73227999999995 604.684 C 481.60434999999995 605.21641 489.00913999999995 605.5079999999999 496.73227999999995 605.5079999999999 C 504.45541999999995 605.5079999999999 511.86020999999994 605.21638 518.73228 604.684 L 518.73228 680.0079999999999 C 518.73228 683.5978508739 521.6424291260998 686.5079999999999 525.23228 686.5079999999999 C 528.8221308739 686.5079999999999 531.73228 683.5978508739 531.73228 680.0079999999999 L 531.73228 603.30232 C 549.76793 600.81422 561.73228 596.46345 561.73228 591.508 Z" stroke-linecap="round" />
</g>
<g transform="matrix(1.11 0 0 1.11 493.43 763.15)"  >
<polygon style="stroke: none; stroke-width: 1; stroke-dasharray: none; stroke-linecap: butt; stroke-dashoffset: 0; stroke-linejoin: miter; stroke-miterlimit: 4; fill: rgb(160,97,106); fill-rule: nonzero; opacity: 1;" vector-effect="non-scaling-stroke"  points="-9.04,23.64 3.22,23.64 9.05,-23.64 -9.05,-23.64 -9.04,23.64 " />
</g>
<g transform="matrix(-1.11 0 0 -1.11 502.04 794.06)"  >
<path style="stroke: none; stroke-width: 1; stroke-dasharray: none; stroke-linecap: butt; stroke-dashoffset: 0; stroke-linejoin: miter; stroke-miterlimit: 4; fill: rgb(47,46,65); fill-rule: nonzero; opacity: 1;" vector-effect="non-scaling-stroke"  transform=" translate(-565.86, -677.87)" d="M 546.59844 670.42825 L 585.1291699999999 670.42825 L 585.1291699999999 685.3151200000001 L 561.4853 685.3151200000001 C 553.263514249134 685.3151200000001 546.5984400000001 678.6500457508662 546.5984400000001 670.4282600000001 L 546.5984400000001 670.4282600000001 Z" stroke-linecap="round" />
</g>
<g transform="matrix(1.11 0 0 1.11 503.3 753.72)"  >
<polygon style="stroke: none; stroke-width: 1; stroke-dasharray: none; stroke-linecap: butt; stroke-dashoffset: 0; stroke-linejoin: miter; stroke-miterlimit: 4; fill: rgb(160,97,106); fill-rule: nonzero; opacity: 1;" vector-effect="non-scaling-stroke"  points="1.23,25.27 12.93,21.6 4.34,-25.27 -12.93,-19.85 1.23,25.27 " />
</g>
<g transform="matrix(-1.06 0.33 -0.33 -1.06 523.84 780.64)"  >
<path style="stroke: none; stroke-width: 1; stroke-dasharray: none; stroke-linecap: butt; stroke-dashoffset: 0; stroke-linejoin: miter; stroke-miterlimit: 4; fill: rgb(47,46,65); fill-rule: nonzero; opacity: 1;" vector-effect="non-scaling-stroke"  transform=" translate(-585.42, -665.87)" d="M 566.15243 658.42388 L 604.6831599999999 658.42388 L 604.6831599999999 673.3107500000001 L 581.03928 673.3107500000001 C 572.8174942491339 673.3107500000001 566.15242 666.6456757508662 566.15242 658.4238900000001 L 566.15242 658.4238900000001 Z" stroke-linecap="round" />
</g>
<g transform="matrix(1.11 0 0 1.11 456 705.62)"  >
<path style="stroke: none; stroke-width: 1; stroke-dasharray: none; stroke-linecap: butt; stroke-dashoffset: 0; stroke-linejoin: miter; stroke-miterlimit: 4; fill: rgb(47,46,65); fill-rule: nonzero; opacity: 1;" vector-effect="non-scaling-stroke"  transform=" translate(-524.88, -598.79)" d="M 560.16112 645.32445 L 537.73387 586.45336 C 532.7023800000001 587.635 490.50731 596.97191 476.37498000000005 581.92504 C 471.53172000000006 576.7678099999999 470.58714000000003 569.29613 473.56737000000004 559.71704 L 481.81493000000006 549.35278 L 482.0712700000001 549.3664500000001 C 485.18968000000007 549.53051 558.5065800000001 553.6398900000002 563.5324600000001 575.7551200000001 C 567.7700000000001 594.3996600000002 575.5090200000001 629.1604000000001 577.7797700000001 639.3703600000001 C 578.2555728131399 641.556768696539 577.0584789173998 643.7619015846057 574.9657700000001 644.5539500000001 L 565.9464900000002 647.9357900000001 C 565.4439728405463 648.1249694315298 564.9114372529478 648.2218997163131 564.3744900000002 648.2219200000001 C 562.5055593705094 648.2217067498821 560.8301271947638 647.0695377103109 560.16112 645.32445 Z" stroke-linecap="round" />
</g>
<g transform="matrix(1.11 0 0 1.11 441.51 713.43)"  >
<path style="stroke: none; stroke-width: 1; stroke-dasharray: none; stroke-linecap: butt; stroke-dashoffset: 0; stroke-linejoin: miter; stroke-miterlimit: 4; fill: rgb(47,46,65); fill-rule: nonzero; opacity: 1;" vector-effect="non-scaling-stroke"  transform=" translate(-511.88, -605.79)" d="M 547.16112 652.32445 L 524.73387 593.45336 C 519.70213 594.635 477.50731 603.97093 463.37498000000005 588.92504 C 458.53172000000006 583.7678099999999 457.58714000000003 576.29613 460.56737000000004 566.71704 L 468.81493000000006 556.35278 L 469.0712700000001 556.3664500000001 C 472.18968000000007 556.53051 545.5065800000001 560.6398900000002 550.5324600000001 582.7551200000001 C 554.7700000000001 601.3996600000002 562.5090200000001 636.1604000000001 564.7797700000001 646.3703600000001 C 565.2555728131399 648.556768696539 564.0584789173998 650.7619015846057 561.9657700000001 651.5539500000001 L 552.9464900000002 654.9357900000001 C 552.4439728405463 655.1249694315298 551.9114372529478 655.2218997163131 551.3744900000002 655.2219200000001 C 549.5055593705094 655.2217067498821 547.8301271947638 654.0695377103109 547.16112 652.32445 Z" stroke-linecap="round" />
</g>
<g transform="matrix(1.11 0 0 1.11 484.26 622.15)"  >
<path style="stroke: none; stroke-width: 1; stroke-dasharray: none; stroke-linecap: butt; stroke-dashoffset: 0; stroke-linejoin: miter; stroke-miterlimit: 4; fill: rgb(160,97,106); fill-rule: nonzero; opacity: 1;" vector-effect="non-scaling-stroke"  transform=" translate(-550.2, -523.76)" d="M 577.46925 511.20192 C 577.1379112936497 511.645109214146 576.8420343346238 512.1137348759466 576.58437 512.60344 L 527.2641100000001 517.79967 L 520.16452 508.06567 L 504.07381000000004 516.8601600000001 L 518.01828 540.4814100000001 L 578.50567 525.0588900000001 C 581.6302598077559 528.1051366346705 586.313749005132 528.9002425593953 590.2686105840672 527.0558592159891 C 594.2234721630026 525.2114758725829 596.6245321163069 521.1124301794846 596.2990559164332 516.7607931002592 C 595.9735797165595 512.4091560210339 592.9894773256476 508.71288798231905 588.8042550016079 507.47733380530684 C 584.6190326775682 506.24177962829464 580.1059287391583 507.7247352360526 577.46925 511.20189000000016 Z" stroke-linecap="round" />
</g>
<g transform="matrix(1.11 0 0 1.11 411.8 618.77)"  >
<path style="stroke: none; stroke-width: 1; stroke-dasharray: none; stroke-linecap: butt; stroke-dashoffset: 0; stroke-linejoin: miter; stroke-miterlimit: 4; fill: rgb(59,130,246); fill-rule: nonzero; opacity: 1;" vector-effect="non-scaling-stroke"  transform=" translate(-485.13, -521.88)" d="M 460.25023 569.82543 C 458.87392226115566 568.8336654306676 458.17109806552133 567.153080032972 458.43162 565.4767899999999 C 461.21410000000003 547.13402 458.01268 520.8576499999999 454.8369 502.0441799999999 C 453.51863921526086 494.30357526231035 455.94466937519627 486.3960309334503 461.3771380762897 480.7265462114175 C 466.8096067773832 475.05706148938464 474.60640654006136 472.29575869713165 482.39622 473.2824599999999 C 485.73843475422115 473.7239529274145 489.04934181973726 474.37662531696185 492.30906999999996 475.2365599999999 L 492.30907 475.2365599999999 C 503.46169065540147 478.045123891099 511.179194564817 488.20711456108506 510.89107 499.7043299999999 C 510.41621000000004 517.85863 514.10249 540.5099999999999 515.70943 549.4055 C 515.9311072797518 550.6407530160911 515.6290766681246 551.9125571394034 514.87569 552.91625 C 514.1366836683596 553.9098451508906 513.0126024772406 554.5453378028578 511.78022999999996 554.66625 C 493.97211999999996 556.48363 474.76802 565.1682 464.90572 570.18285 C 464.27188266707043 570.5098930988087 463.5693934414978 570.6816114686109 462.85616 570.68385 C 461.9185494598118 570.6807704770882 461.00610717859894 570.3802026556046 460.25023 569.82543 Z" stroke-linecap="round" />
</g>
<g transform="matrix(1.11 0 0 1.11 442 597.83)"  >
<path style="stroke: none; stroke-width: 1; stroke-dasharray: none; stroke-linecap: butt; stroke-dashoffset: 0; stroke-linejoin: miter; stroke-miterlimit: 4; fill: rgb(59,130,246); fill-rule: nonzero; opacity: 1;" vector-effect="non-scaling-stroke"  transform=" translate(-511.15, -501.96)" d="M 508.321 522.5139 C 507.20932140603117 522.0772376058927 506.31857738699637 521.2139220914968 505.84737 520.11644 L 495.91597 497.17406 C 494.27997652227106 493.4028913396082 494.78139385538003 489.04525109516084 497.23115938446364 485.74421541271107 C 499.68092491354724 482.44317973026125 503.70642938533143 480.70083602432527 507.78983057274235 481.1741461414202 C 511.8732317601532 481.64745625851504 515.3934444821006 484.26442974600195 517.02315 488.03832 L 526.95479 510.9807 C 527.9384627276748 513.2614146283893 526.8909090239558 515.9080308815513 524.61279 516.8977 L 511.76489000000004 522.4592299999999 C 510.67036520926337 522.9369064819923 509.43017794488304 522.9565976530992 508.32104000000004 522.5139099999999 Z" stroke-linecap="round" />
</g>
<g transform="matrix(1.11 0 0 1.11 431.87 619.92)"  >
<path style="stroke: none; stroke-width: 1; stroke-dasharray: none; stroke-linecap: butt; stroke-dashoffset: 0; stroke-linejoin: miter; stroke-miterlimit: 4; fill: rgb(160,97,106); fill-rule: nonzero; opacity: 1;" vector-effect="non-scaling-stroke"  transform=" translate(-503.2, -521.76)" d="M 530.46925 509.20192 C 530.1379112936497 509.645109214146 529.8420343346238 510.1137348759466 529.58437 510.60344 L 480.26411 515.79967 L 473.16452000000004 506.06567 L 457.07381000000004 514.8601600000001 L 471.01828000000006 538.4814100000001 L 531.50567 523.0588900000001 C 534.6302598077559 526.1051366346705 539.313749005132 526.9002425593953 543.2686105840672 525.0558592159891 C 547.2234721630026 523.2114758725829 549.6245321163069 519.1124301794846 549.2990559164332 514.7607931002592 C 548.9735797165595 510.4091560210339 545.9894773256476 506.71288798231905 541.8042550016079 505.47733380530684 C 537.6190326775682 504.24177962829464 533.1059287391583 505.7247352360526 530.46925 509.20189000000016 Z" stroke-linecap="round" />
</g>
<g transform="matrix(1.11 0 0 1.11 388.48 598.94)"  >
<path style="stroke: none; stroke-width: 1; stroke-dasharray: none; stroke-linecap: butt; stroke-dashoffset: 0; stroke-linejoin: miter; stroke-miterlimit: 4; fill: rgb(59,130,246); fill-rule: nonzero; opacity: 1;" vector-effect="non-scaling-stroke"  transform=" translate(-464.15, -502.96)" d="M 461.321 523.5139 C 460.20932140603117 523.0772376058927 459.31857738699637 522.2139220914968 458.84737 521.11644 L 448.91597 498.17406 C 447.27997652227106 494.4028913396082 447.78139385538003 490.04525109516084 450.23115938446364 486.74421541271107 C 452.68092491354724 483.44317973026125 456.70642938533143 481.70083602432527 460.78983057274235 482.1741461414202 C 464.8732317601532 482.64745625851504 468.39344448210056 485.26442974600195 470.02315 489.03832 L 479.95479 511.9807 C 480.93846272767485 514.2614146283893 479.89090902395577 516.9080308815513 477.61279 517.8977 L 464.76489000000004 523.4592299999999 C 463.67036520926337 523.9369064819923 462.43017794488304 523.9565976530992 461.32104000000004 523.5139099999999 Z" stroke-linecap="round" />
</g>
<g transform="matrix(1.11 0 0 1.11 406.74 529.75)"  >
<circle style="stroke: none; stroke-width: 1; stroke-dasharray: none; stroke-linecap: butt; stroke-dashoffset: 0; stroke-linejoin: miter; stroke-miterlimit: 4; fill: rgb(160,97,106); fill-rule: nonzero; opacity: 1;" vector-effect="non-scaling-stroke"  cx="0" cy="0" r="24.56103" />
</g>
<g transform="matrix(1.11 0 0 1.11 404.24 521.15)"  >
<path style="stroke: none; stroke-width: 1; stroke-dasharray: none; stroke-linecap: butt; stroke-dashoffset: 0; stroke-linejoin: miter; stroke-miterlimit: 4; fill: rgb(47,46,65); fill-rule: nonzero; opacity: 1;" vector-effect="non-scaling-stroke"  transform=" translate(-478.33, -433.2)" d="M 463.008 457.77336 C 462.7944312220036 457.148600008218 462.88196392955035 456.4601760125212 463.2450851098326 455.90874181091885 C 463.6082062901148 455.3573076093166 464.20604862402985 455.0049241299638 464.86436 454.95430000000005 C 466.2086028893382 455.0274329313745 467.46448412362616 455.64704580695457 468.34045999999995 456.6693 C 469.2293361334102 457.69416647057415 470.26412802293 458.5827131191493 471.41160999999994 459.30641 C 472.59972999999997 459.9053 474.21113999999994 459.81995 474.8884699999999 458.67816000000005 C 475.52446999999995 457.60596000000004 475.08868999999993 456.17016000000007 474.70363999999995 454.92470000000003 C 473.7238121010707 451.75606345533896 473.1755727110008 448.46980909713363 473.07372999999995 445.15470000000005 C 472.96280999999993 441.45439000000005 473.48488 437.59270000000004 475.53344999999996 434.70664000000005 C 478.17731999999995 430.98188000000005 482.90486999999996 429.56781000000007 487.37888999999996 429.67033000000004 C 491.85290999999995 429.77285 496.25435999999996 431.15396000000004 500.68602999999996 432.02699 C 502.21593999999993 432.32838000000004 504.01428 432.48248 505.03754999999995 431.29674 C 506.12559999999996 430.03592 505.72598999999997 427.99534 505.26318 426.29298 C 504.06224 421.87555 502.78817999999995 417.30837 499.99793 413.74073 C 496.9809584701659 410.0336321577532 492.6713914975895 407.6073838388177 487.93712 406.9506 C 483.3919475856691 406.3875807095084 478.7780453463589 406.91139643754695 474.47476 408.47898000000004 C 467.4636215507131 410.68879083538263 461.29431458940985 414.986583596929 456.79191000000003 420.79758000000004 C 452.15060498375595 426.9773272938704 450.1450632325717 434.74344130036957 451.21382000000006 442.39777000000004 C 452.2579457142921 449.0643816141454 455.790577896628 455.08728651431454 461.09961000000004 459.25239000000005 Z" stroke-linecap="round" />
</g>
<g transform="matrix(1.11 0 0 1.11 290.35 587.23)"  >
<path style="stroke: none; stroke-width: 1; stroke-dasharray: none; stroke-linecap: butt; stroke-dashoffset: 0; stroke-linejoin: miter; stroke-miterlimit: 4; fill: rgb(63,61,86); fill-rule: nonzero; opacity: 1;" vector-effect="non-scaling-stroke"  transform=" translate(-376.09, -492.47)" d="M 369.22831 516.90206 C 370.4637619868171 503.59660189951853 373.8760080821149 490.58436454252086 379.32881999999995 478.38484000000005 Q 381.60843 473.29235 384.34694 468.42408 C 384.53720538485067 468.0712760379424 384.4136809964187 467.6311567081136 384.06762526765743 467.4288772358298 C 383.72156953889623 467.22659776354607 383.2774645117425 467.3349214630917 383.06341000000003 467.67382 C 376.42413787875404 479.49475851465115 371.77287889147595 492.3265515930719 369.29561 505.65612999999996 Q 368.26193 511.23967999999996 367.74183 516.90206 C 367.65371 517.8542 369.14074999999997 517.84819 369.22830999999996 516.90206 Z" stroke-linecap="round" />
</g>
<g transform="matrix(1.11 0 0 1.11 303.57 552.66)"  >
<circle style="stroke: none; stroke-width: 1; stroke-dasharray: none; stroke-linecap: butt; stroke-dashoffset: 0; stroke-linejoin: miter; stroke-miterlimit: 4; fill: rgb(59,130,246); fill-rule: nonzero; opacity: 1;" vector-effect="non-scaling-stroke"  cx="0" cy="0" r="9.4144" />
</g>
<g transform="matrix(1.11 0 0 1.11 288.75 597.12)"  >
<path style="stroke: none; stroke-width: 1; stroke-dasharray: none; stroke-linecap: butt; stroke-dashoffset: 0; stroke-linejoin: miter; stroke-miterlimit: 4; fill: rgb(63,61,86); fill-rule: nonzero; opacity: 1;" vector-effect="non-scaling-stroke"  transform=" translate(-374.64, -501.3)" d="M 370.19134 517.1521 C 370.9928334527724 508.5202277052936 373.2065160369897 500.0785812741725 376.74401 492.1641800000001 Q 378.2229 488.86046000000005 379.9995 485.70218000000006 C 380.1229327577598 485.47329863398573 380.0427956941828 485.1877729178366 379.8182928464103 485.0565448844793 C 379.5937899986379 484.925316851122 379.30567818159375 484.99559105990977 379.16681 485.21545000000003 C 374.8596045966342 492.8842416573343 371.84211720836197 501.20882254416506 370.235 509.85634000000005 Q 369.56441 513.47865 369.22700000000003 517.1521 C 369.16984 517.7698 370.13455000000005 517.7659 370.19135000000006 517.1521 Z" stroke-linecap="round" />
</g>
<g transform="matrix(1.11 0 0 1.11 297.33 574.69)"  >
<circle style="stroke: none; stroke-width: 1; stroke-dasharray: none; stroke-linecap: butt; stroke-dashoffset: 0; stroke-linejoin: miter; stroke-miterlimit: 4; fill: rgb(105,254,1); fill-rule: nonzero; opacity: 1;" vector-effect="non-scaling-stroke"  cx="0" cy="0" r="6.10756" />
</g>
<g transform="matrix(1.11 0 0 1.11 275.47 597.18)"  >
<path style="stroke: none; stroke-width: 1; stroke-dasharray: none; stroke-linecap: butt; stroke-dashoffset: 0; stroke-linejoin: miter; stroke-miterlimit: 4; fill: rgb(63,61,86); fill-rule: nonzero; opacity: 1;" vector-effect="non-scaling-stroke"  transform=" translate(-362.73, -501.36)" d="M 368.97418 516.57556 C 364.2970297957685 509.27652978297135 360.8503623148778 501.25890975332555 358.77178 492.84279 Q 357.90585999999996 489.32826 357.36415 485.7453 C 357.3207150059297 485.488895776124 357.08190348040876 485.31303333167244 356.8241602773928 485.34764786663123 C 356.5664170743769 485.3822624015901 356.3824666619687 485.614901155595 356.40822 485.87368 C 357.7288446882293 494.56956007075854 360.46972841010484 502.9892642172944 364.52128 510.79614 Q 366.22047 514.06471 368.21380999999997 517.16869 C 368.54866 517.69089 369.30692 517.09446 368.97418 516.57556 Z" stroke-linecap="round" />
</g>
<g transform="matrix(1.11 0 0 1.11 269.54 574.21)"  >
<circle style="stroke: none; stroke-width: 1; stroke-dasharray: none; stroke-linecap: butt; stroke-dashoffset: 0; stroke-linejoin: miter; stroke-miterlimit: 4; fill: rgb(225,5,51); fill-rule: nonzero; opacity: 1;" vector-effect="non-scaling-stroke"  cx="0" cy="0" r="6.10756" />
</g>
<g transform="matrix(1.11 0 0 1.11 282.1 613.5)"  >
<path style="stroke: none; stroke-width: 1; stroke-dasharray: none; stroke-linecap: butt; stroke-dashoffset: 0; stroke-linejoin: miter; stroke-miterlimit: 4; fill: rgb(204,204,204); fill-rule: nonzero; opacity: 1;" vector-effect="non-scaling-stroke"  transform=" translate(-368.72, -515.98)" d="M 350.22441 521.97927 L 350.22441 509.97927000000004 C 350.2272095584939 507.49514916495104 352.240289164951 505.48206955849395 354.72441 505.47927000000004 L 382.72441 505.47927000000004 C 385.208530835049 505.48206955849395 387.2216104415061 507.49514916495104 387.22441 509.97927000000004 L 387.22441 521.97927 C 387.2216104415061 524.463390835049 385.208530835049 526.4764704415062 382.72441 526.47927 L 354.72441 526.47927 C 352.240289164951 526.4764704415062 350.2272095584939 524.463390835049 350.22441 521.97927 Z" stroke-linecap="round" />
</g>
<g transform="matrix(1.11 0 0 1.11 497.13 620.25)"  >
<rect style="stroke: none; stroke-width: 1; stroke-dasharray: none; stroke-linecap: butt; stroke-dashoffset: 0; stroke-linejoin: miter; stroke-miterlimit: 4; fill: rgb(204,204,204); fill-rule: nonzero; opacity: 1;" vector-effect="non-scaling-stroke"  x="-43" y="-3.5" rx="3.5" ry="3.5" width="86" height="7" />
</g>
<g transform="matrix(1.11 0 0 1.11 550.6 589.47)"  >
<path style="stroke: none; stroke-width: 1; stroke-dasharray: none; stroke-linecap: butt; stroke-dashoffset: 0; stroke-linejoin: miter; stroke-miterlimit: 4; fill: rgb(204,204,204); fill-rule: nonzero; opacity: 1;" vector-effect="non-scaling-stroke"  transform=" translate(-609.73, -494.51)" d="M 654.23228 525.508 L 565.23228 525.508 C 561.6441105302828 525.5039439732215 558.7363360267785 522.5961694697172 558.73228 519.008 L 558.73228 470.00800000000004 C 558.7363415257557 466.4198328116785 561.6441128116784 463.5120615257559 565.23228 463.50800000000004 L 654.23228 463.50800000000004 C 657.8204471883215 463.5120615257559 660.7282184742442 466.4198328116785 660.73228 470.00800000000004 L 660.73228 519.008 C 660.7282239732214 522.5961694697172 657.8204494697171 525.5039439732215 654.23228 525.508 Z" stroke-linecap="round" />
</g>
<g transform="matrix(1.11 0 0 1.11 550.82 589.59)"  >
<circle style="stroke: none; stroke-width: 1; stroke-dasharray: none; stroke-linecap: butt; stroke-dashoffset: 0; stroke-linejoin: miter; stroke-miterlimit: 4; fill: rgb(255,255,255); fill-rule: nonzero; opacity: 1;" vector-effect="non-scaling-stroke"  cx="0" cy="0" r="6" />
</g>
<g transform="matrix(1.11 0 0 1.11 780.18 742.63)"  >
<path style="stroke: none; stroke-width: 1; stroke-dasharray: none; stroke-linecap: butt; stroke-dashoffset: 0; stroke-linejoin: miter; stroke-miterlimit: 4; fill: rgb(204,204,204); fill-rule: nonzero; opacity: 1;" vector-effect="non-scaling-stroke"  transform=" translate(-815.73, -632.01)" d="M 880.73228 591.508 C 880.73228 583.7760000000001 851.63072 577.508 815.73228 577.508 C 779.8338399999999 577.508 750.73228 583.7760000000001 750.73228 591.508 C 750.73228 596.4634500000001 762.6966399999999 600.8142200000001 780.73228 603.30232 L 780.73228 680.008 C 780.73228 683.5978508739001 783.6424291260998 686.508 787.23228 686.508 C 790.8221308739 686.508 793.73228 683.5978508739001 793.73228 680.008 L 793.73228 604.684 C 800.60435 605.21641 808.0091399999999 605.5079999999999 815.73228 605.5079999999999 C 823.45542 605.5079999999999 830.8602099999999 605.21638 837.73228 604.684 L 837.73228 680.0079999999999 C 837.73228 683.5978508739 840.6424291260998 686.5079999999999 844.23228 686.5079999999999 C 847.8221308739 686.5079999999999 850.73228 683.5978508739 850.73228 680.0079999999999 L 850.73228 603.30232 C 868.76793 600.81422 880.73228 596.46345 880.73228 591.508 Z" stroke-linecap="round" />
</g>
<g transform="matrix(1.11 0 0 1.11 788.36 523.55)"  >
<circle style="stroke: none; stroke-width: 1; stroke-dasharray: none; stroke-linecap: butt; stroke-dashoffset: 0; stroke-linejoin: miter; stroke-miterlimit: 4; fill: rgb(47,46,65); fill-rule: nonzero; opacity: 1;" vector-effect="non-scaling-stroke"  cx="0" cy="0" r="28" />
</g>
<g transform="matrix(1.11 0 0 1.11 700.69 764.27)"  >
<polygon style="stroke: none; stroke-width: 1; stroke-dasharray: none; stroke-linecap: butt; stroke-dashoffset: 0; stroke-linejoin: miter; stroke-miterlimit: 4; fill: rgb(255,184,184); fill-rule: nonzero; opacity: 1;" vector-effect="non-scaling-stroke"  points="9.05,23.64 -3.21,23.64 -9.05,-23.64 9.05,-23.64 9.05,23.64 " />
</g>
<g transform="matrix(1.11 0 0 1.11 692.18 795.1)"  >
<path style="stroke: none; stroke-width: 1; stroke-dasharray: none; stroke-linecap: butt; stroke-dashoffset: 0; stroke-linejoin: miter; stroke-miterlimit: 4; fill: rgb(47,46,65); fill-rule: nonzero; opacity: 1;" vector-effect="non-scaling-stroke"  transform=" translate(-506.94, -465.85)" d="M 502.56 458.40253 L 526.20387 458.40253 L 526.20387 473.2894 L 487.67309 473.2894 L 487.67309 473.2894 C 487.67308734780585 469.3411488503907 489.2415255730942 465.5546076122282 492.0333644855385 462.76277620124364 C 494.8252033979828 459.9709447902591 498.6117488504121 458.40251673913974 502.56 458.40253 Z" stroke-linecap="round" />
</g>
<g transform="matrix(1.11 0 0 1.11 690.8 754.83)"  >
<polygon style="stroke: none; stroke-width: 1; stroke-dasharray: none; stroke-linecap: butt; stroke-dashoffset: 0; stroke-linejoin: miter; stroke-miterlimit: 4; fill: rgb(255,184,184); fill-rule: nonzero; opacity: 1;" vector-effect="non-scaling-stroke"  points="-1.23,25.27 -12.93,21.6 -4.34,-25.27 12.93,-19.85 -1.23,25.27 " />
</g>
<g transform="matrix(1.06 0.33 -0.33 1.06 670.4 781.69)"  >
<path style="stroke: none; stroke-width: 1; stroke-dasharray: none; stroke-linecap: butt; stroke-dashoffset: 0; stroke-linejoin: miter; stroke-miterlimit: 4; fill: rgb(47,46,65); fill-rule: nonzero; opacity: 1;" vector-effect="non-scaling-stroke"  transform=" translate(-717.05, -666.87)" d="M 712.66827 659.42388 L 736.31214 659.42388 L 736.31214 674.3107500000001 L 697.78141 674.3107500000001 L 697.78141 674.3107500000001 C 697.781407347834 670.3625075134574 699.3498387095682 666.5759738526442 702.1416668078898 663.7841438789586 C 704.9334949062114 660.992313905273 708.7200275134564 659.4238799999991 712.66827 659.42388 Z" stroke-linecap="round" />
</g>
<g transform="matrix(1.11 0 0 1.11 737.71 706.74)"  >
<path style="stroke: none; stroke-width: 1; stroke-dasharray: none; stroke-linecap: butt; stroke-dashoffset: 0; stroke-linejoin: miter; stroke-miterlimit: 4; fill: rgb(47,46,65); fill-rule: nonzero; opacity: 1;" vector-effect="non-scaling-stroke"  transform=" translate(-777.59, -599.79)" d="M 738.09007 649.22191 C 737.5531226679713 649.2218905922142 737.020586924831 649.1249602791196 736.51807 648.93578 L 727.49878 645.55394 C 725.4060710826003 644.7618915846056 724.2089771868602 642.556758696539 724.68478 640.37035 C 726.9555300000001 630.16035 734.6945400000001 595.3996500000001 738.93209 576.7551100000001 C 743.95797 554.6398800000001 817.27487 550.5305000000001 820.39327 550.36644 L 820.64962 550.35277 L 828.8972 560.717 C 831.87742 570.2961 830.9328399999999 577.76778 826.08958 582.925 C 811.9572599999999 597.97187 769.7621899999999 588.635 764.7307 587.45332 L 742.30345 646.32441 C 741.634451222077 648.0695129257238 739.9590118237309 649.2216961270273 738.09007 649.22191 Z" stroke-linecap="round" />
</g>
<g transform="matrix(1.11 0 0 1.11 752.21 714.54)"  >
<path style="stroke: none; stroke-width: 1; stroke-dasharray: none; stroke-linecap: butt; stroke-dashoffset: 0; stroke-linejoin: miter; stroke-miterlimit: 4; fill: rgb(47,46,65); fill-rule: nonzero; opacity: 1;" vector-effect="non-scaling-stroke"  transform=" translate(-790.59, -606.79)" d="M 751.09007 656.22191 C 750.5531226679713 656.2218905922142 750.020586924831 656.1249602791196 749.51807 655.93578 L 740.49878 652.55394 C 738.4060710826003 651.7618915846056 737.2089771868602 649.556758696539 737.68478 647.37035 C 739.9555300000001 637.16035 747.6945400000001 602.3996500000001 751.93209 583.7551100000001 C 756.95797 561.6398800000001 830.27487 557.5305000000001 833.39327 557.36644 L 833.64962 557.35277 L 841.8972 567.717 C 844.87742 577.2961 843.9328399999999 584.76778 839.08958 589.925 C 824.9572599999999 604.9708899999999 782.76243 595.635 777.7307 594.45332 L 755.30345 653.32441 C 754.634451222077 655.0695129257238 752.9590118237309 656.2216961270273 751.09007 656.22191 Z" stroke-linecap="round" />
</g>
<g transform="matrix(1.11 0 0 1.11 709.51 623.27)"  >
<path style="stroke: none; stroke-width: 1; stroke-dasharray: none; stroke-linecap: butt; stroke-dashoffset: 0; stroke-linejoin: miter; stroke-miterlimit: 4; fill: rgb(255,184,184); fill-rule: nonzero; opacity: 1;" vector-effect="non-scaling-stroke"  transform=" translate(-752.26, -524.76)" d="M 724.99531 512.20192 C 725.3266553684402 512.6451066577882 725.6225358413874 513.1137325891976 725.8802000000001 513.60344 L 775.20046 518.79967 L 782.30005 509.06567 L 798.39076 517.8601600000001 L 784.44629 541.4814100000001 L 723.9589 526.05891 C 720.834310887462 529.1051657476214 716.150816225749 529.9002792701536 712.1959471892814 528.0558980442418 C 708.2410781528137 526.21151681833 705.8400109813513 522.1124676361253 706.1654844956508 517.760824475939 C 706.4909580099504 513.4091813157527 709.4750627525318 509.7129066174503 713.66029036277 508.4773496367295 C 717.845517973008 507.2417926560088 722.3586283132114 508.72475011229557 724.99531 512.20191 Z" stroke-linecap="round" />
</g>
<g transform="matrix(1.11 0 0 1.11 782.12 621.02)"  >
<path style="stroke: none; stroke-width: 1; stroke-dasharray: none; stroke-linecap: butt; stroke-dashoffset: 0; stroke-linejoin: miter; stroke-miterlimit: 4; fill: rgb(225,5,51); fill-rule: nonzero; opacity: 1;" vector-effect="non-scaling-stroke"  transform=" translate(-817.33, -522.88)" d="M 839.60838 571.68383 C 838.8951465585021 571.6815914686108 838.1926573329296 571.5098730988086 837.55882 571.18283 C 827.69652 566.16818 808.49241 557.48361 790.68431 555.6662299999999 C 789.4519375227593 555.5453178028578 788.3278563316403 554.9098251508906 787.58885 553.9162299999999 C 786.8354588574225 552.9125392378565 786.5334277800691 551.6407331534436 786.75511 550.4054799999999 C 788.36204 541.5099799999999 792.04832 518.8586099999999 791.5734699999999 500.7043099999999 C 791.285345435183 489.2070945610851 799.0028493445985 479.045103891099 810.1554699999999 476.2365399999999 L 810.1554699999999 476.2365399999999 C 813.4151948127674 475.3766053651248 816.7260985486473 474.7239329735314 820.0683099999999 474.2824399999999 C 827.8581240459972 473.29573963908456 835.654924083821 476.05704229681925 841.0873941329335 481.7265263684914 C 846.5198641820459 487.3960104401636 848.9458970625092 495.3035541586854 847.6276399999999 503.0441599999999 C 844.4518599999999 521.85763 841.2504399999999 548.1339999999999 844.0329099999999 566.4767699999999 C 844.2934341234704 568.1530580441648 843.5906139780257 569.8336429981334 842.21431 570.8254099999999 C 841.4584328214011 571.3801826556046 840.5459905401882 571.6807504770882 839.60838 571.68383 Z" stroke-linecap="round" />
</g>
<g transform="matrix(1.11 0 0 1.11 753.2 598.94)"  >
<path style="stroke: none; stroke-width: 1; stroke-dasharray: none; stroke-linecap: butt; stroke-dashoffset: 0; stroke-linejoin: miter; stroke-miterlimit: 4; fill: rgb(225,5,51); fill-rule: nonzero; opacity: 1;" vector-effect="non-scaling-stroke"  transform=" translate(-791.32, -502.96)" d="M 792.48631 523.83226 C 791.8715325104029 523.8313767881089 791.2634670536231 523.7044284636868 790.69969 523.45926 L 777.85179 517.89773 C 775.5736667004063 516.9080650186343 774.5261113235097 514.2614445382341 775.5097900000001 511.98073000000005 L 785.4414300000001 489.03835000000004 C 787.0711355178995 485.264459746002 790.5913482398469 482.6474862585151 794.6747494272578 482.1741761414202 C 798.7581506146686 481.7008660243253 802.7836550864529 483.4432097302613 805.2334206155365 486.7442454127111 C 807.6831861446201 490.0452810951609 808.1846034777291 494.4029213396082 806.54861 498.17409000000004 L 796.61721 521.11647 C 795.9031239314587 522.7628950799291 794.2809602628528 523.8293811226595 792.48635 523.8322900000001 Z" stroke-linecap="round" />
</g>
<g transform="matrix(1.11 0 0 1.11 787.24 530.87)"  >
<circle style="stroke: none; stroke-width: 1; stroke-dasharray: none; stroke-linecap: butt; stroke-dashoffset: 0; stroke-linejoin: miter; stroke-miterlimit: 4; fill: rgb(255,184,184); fill-rule: nonzero; opacity: 1;" vector-effect="non-scaling-stroke"  cx="0" cy="0" r="24.56103" />
</g>
<g transform="matrix(1.11 0 0 1.11 788.92 515.05)"  >
<path style="stroke: none; stroke-width: 1; stroke-dasharray: none; stroke-linecap: butt; stroke-dashoffset: 0; stroke-linejoin: miter; stroke-miterlimit: 4; fill: rgb(47,46,65); fill-rule: nonzero; opacity: 1;" vector-effect="non-scaling-stroke"  transform=" translate(-823.41, -427.68)" d="M 796.89293 429.84957 C 808.5267403472152 436.9513411954741 821.6423476978808 441.2729179697669 835.21911 442.478 L 831.17919 437.63739 C 834.1207301677291 438.72497999789516 837.2160200308863 439.3396171597057 840.34993 439.45844 C 843.48014 439.40969 846.7597999999999 438.20444 848.53635 435.62673 C 850.1446251736398 433.0258646822683 850.3781869096333 429.8025401623147 849.16166 426.99699 C 847.9304579998054 424.2400078948704 846.0142200957267 421.8439566000037 843.5953 420.03684999999996 C 834.8866350323083 413.1479041358048 823.3065494287656 411.07832763512846 812.75083 414.52437 C 809.1859321694247 415.589776636967 805.9932246408979 417.6377904673021 803.5384499999999 420.43379999999996 C 801.2100699999999 423.30618 796.7275099999999 425.86535999999995 797.9196599999999 429.36546999999996 Z" stroke-linecap="round" />
</g>
<g transform="matrix(1.11 0 0 1.11 742.05 527.82)"  >
<path style="stroke: none; stroke-width: 1; stroke-dasharray: none; stroke-linecap: butt; stroke-dashoffset: 0; stroke-linejoin: miter; stroke-miterlimit: 4; fill: rgb(47,46,65); fill-rule: nonzero; opacity: 1;" vector-effect="non-scaling-stroke"  transform=" translate(-781.44, -439.29)" d="M 826.02581 410.0287 C 818.2792890082967 402.1731464563132 808.9049584651106 396.1111499161481 798.56281 392.2695 C 791.92409 389.81009 784.69822 388.29055 777.7577200000001 389.68725 C 770.8172200000001 391.08395 764.2536100000001 395.88532 762.31731 402.69503000000003 C 760.7339900000001 408.26339 762.36889 414.25882 764.82602 419.50058 C 767.28315 424.74234 770.5636 429.60305 772.55065 435.04043 C 776.6698576123371 446.31231021795134 774.8096771476143 458.9026965720451 767.6068642444218 468.5017924296237 C 760.4040513412294 478.10088828720234 748.8356602845055 483.40658600431703 736.86165 482.6027 C 743.6810300000001 483.51707000000005 749.9668 486.72170000000006 756.63241 488.42753000000005 C 763.2980200000001 490.13336000000004 771.1652200000001 490.01764000000003 776.11865 485.24234000000007 C 781.35956 480.1899000000001 781.46449 471.9751600000001 781.2111 464.6998500000001 L 780.0811 432.2548500000001 C 779.889 426.7394200000001 779.72495 421.0472200000001 781.71398 415.8993400000001 C 783.70301 410.7514600000001 788.43015 406.2436500000001 793.94873 406.2904900000001 C 798.13126 406.3259900000001 801.8331499999999 408.8597500000001 805.18738 411.3584900000001 C 808.54161 413.8572300000001 812.0918399999999 416.52323000000007 816.25798 416.89490000000006 C 820.42412 417.26657000000006 825.1809099999999 414.1834600000001 824.86916 410.01241000000005" stroke-linecap="round" />
</g>
<g transform="matrix(1.11 0 0 1.11 700.62 624.11)"  >
<polygon style="stroke: none; stroke-width: 1; stroke-dasharray: none; stroke-linecap: butt; stroke-dashoffset: 0; stroke-linejoin: miter; stroke-miterlimit: 4; fill: rgb(230,230,230); fill-rule: nonzero; opacity: 1;" vector-effect="non-scaling-stroke"  points="-32.37,-31.48 24.18,-30.15 32.37,30.31 -19.85,31.48 -32.37,-31.48 " />
</g>
<g transform="matrix(1.11 0 0 1.11 761.91 621.04)"  >
<path style="stroke: none; stroke-width: 1; stroke-dasharray: none; stroke-linecap: butt; stroke-dashoffset: 0; stroke-linejoin: miter; stroke-miterlimit: 4; fill: rgb(255,184,184); fill-rule: nonzero; opacity: 1;" vector-effect="non-scaling-stroke"  transform=" translate(-799.26, -522.76)" d="M 771.99531 510.20192 C 772.3266553684402 510.64510665778823 772.6225358413874 511.11373258919764 772.8802000000001 511.60344 L 822.20046 516.79967 L 829.30005 507.06567 L 845.39076 515.8601600000001 L 831.44629 539.4814100000001 L 770.9589 524.05891 C 767.834310887462 527.1051657476214 763.150816225749 527.9002792701536 759.1959471892814 526.0558980442418 C 755.2410781528137 524.21151681833 752.8400109813513 520.1124676361253 753.1654844956508 515.760824475939 C 753.4909580099504 511.4091813157526 756.4750627525318 507.7129066174503 760.66029036277 506.4773496367295 C 764.845517973008 505.2417926560088 769.3586283132114 506.72475011229557 771.99531 510.20191 Z" stroke-linecap="round" />
</g>
<g transform="matrix(1.11 0 0 1.11 805.59 600.06)"  >
<path style="stroke: none; stroke-width: 1; stroke-dasharray: none; stroke-linecap: butt; stroke-dashoffset: 0; stroke-linejoin: miter; stroke-miterlimit: 4; fill: rgb(225,5,51); fill-rule: nonzero; opacity: 1;" vector-effect="non-scaling-stroke"  transform=" translate(-838.32, -503.96)" d="M 839.48631 524.83226 C 838.8715325104029 524.8313767881089 838.2634670536231 524.7044284636868 837.69969 524.45926 L 824.85179 518.89773 C 822.5736667004063 517.9080650186343 821.5261113235097 515.261444538234 822.5097900000001 512.98073 L 832.4414300000001 490.03835 C 834.0711355178995 486.26445974600193 837.5913482398469 483.647486258515 841.6747494272578 483.17417614142016 C 845.7581506146686 482.70086602432525 849.7836550864529 484.44320973026123 852.2334206155365 487.74424541271105 C 854.6831861446201 491.0452810951608 855.1846034777291 495.40292133960816 853.54861 499.17409 L 843.61721 522.1164699999999 C 842.9031239314587 523.762895079929 841.2809602628528 524.8293811226594 839.48635 524.83229 Z" stroke-linecap="round" />
</g>
<g transform="matrix(1.11 0 0 1.11 454.55 712.41)"  >
<path style="stroke: none; stroke-width: 1; stroke-dasharray: none; stroke-linecap: butt; stroke-dashoffset: 0; stroke-linejoin: miter; stroke-miterlimit: 4; fill: rgb(63,61,86); fill-rule: nonzero; opacity: 1;" vector-effect="non-scaling-stroke"  transform=" translate(-524.23, -605.01)" d="M 723.23228 524.508 L 325.23227999999995 524.508 C 321.6424291260998 524.508 318.73227999999995 527.4181491260999 318.73227999999995 531.008 C 318.73227999999995 534.5978508739001 321.6424291260998 537.508 325.23227999999995 537.508 L 336.73227999999995 537.508 L 336.73227999999995 679.008 C 336.73227999999995 682.5978508739001 339.6424291260998 685.508 343.23227999999995 685.508 C 346.8221308739001 685.508 349.73227999999995 682.5978508739001 349.73227999999995 679.008 L 349.73227999999995 549.99806 L 422.60337999999996 682.07594 C 424.40199037910577 685.1768231010236 428.3715243714181 686.2361821415817 431.47601201495354 684.4438005490695 C 434.58049965848903 682.6514189565572 435.6478255821893 678.6840196742147 433.86168 675.57594 L 357.6859 537.508 L 705.73228 537.508 L 705.73228 537.59217 L 629.6033799999999 675.57594 C 627.8084545630498 678.6846983897462 628.8735266102536 682.6599195630498 631.9822849999999 684.454845 C 635.0910433897461 686.24977043695 639.0662645630498 685.1846983897462 640.8611899999999 682.07594 L 705.7322799999998 564.49781 L 705.7322799999998 679.008 C 705.7322799999998 682.5978508739001 708.6424291260997 685.508 712.2322799999998 685.508 C 715.8221308738999 685.508 718.7322799999998 682.5978508739001 718.7322799999998 679.008 L 718.7322799999998 540.93537 L 720.6233999999998 537.508 L 723.2322799999998 537.508 C 726.8221308738999 537.508 729.7322799999998 534.5978508739001 729.7322799999998 531.008 C 729.7322799999998 527.4181491260999 726.8221308738999 524.508 723.2322799999998 524.508 Z" stroke-linecap="round" />
</g>
<g transform="matrix(1.11 0 0 1.11 538.24 802.83)"  >
<path style="stroke: none; stroke-width: 1; stroke-dasharray: none; stroke-linecap: butt; stroke-dashoffset: 0; stroke-linejoin: miter; stroke-miterlimit: 4; fill: rgb(63,61,86); fill-rule: nonzero; opacity: 1;" vector-effect="non-scaling-stroke"  transform=" translate(-600, -685.78)" d="M 969.147 686.97428 L 230.853 686.97428 C 230.1967499812349 686.9723781715289 229.66576063400885 686.4398477745319 229.66576063400885 685.7835950000001 C 229.66576063400885 685.1273422254682 230.1967499812349 684.5948118284712 230.853 684.5929100000001 L 969.147 684.5929100000001 C 969.8045971673523 684.5929100000001 970.337685 685.1259978326478 970.337685 685.783595 C 970.3376850000001 686.4411921673523 969.8045971673523 686.97428 969.147 686.97428 Z" stroke-linecap="round" />
</g>
<g transform="matrix(0 0 0 0 0 0)"  >
<g style=""   >
</g>
</g>
<g transform="matrix(0 0 0 0 0 0)"  >
<g style=""   >
</g>
</g>
<g transform="matrix(0 0 0 0 0 0)"  >
<g style=""   >
</g>
</g>
<g transform="matrix(0 0 0 0 0 0)"  >
<g style=""   >
</g>
</g>
<g transform="matrix(0 0 0 0 0 0)"  >
<g style=""   >
</g>
</g>
<g transform="matrix(NaN NaN NaN NaN 0 0)"  >
<g style=""   >
</g>
</g>
<g transform="matrix(NaN NaN NaN NaN 0 0)"  >
<g style=""   >
</g>
</g>
<g transform="matrix(NaN NaN NaN NaN 0 0)"  >
<g style=""   >
</g>
</g>
</svg>